<svg width="24" height="24" viewBox="0 0 24 24" fill="none" xmlns="http://www.w3.org/2000/svg">
<path fill-rule="evenodd" clip-rule="evenodd" d="M8.78091 16.1247C9.12591 15.6934 9.05599 15.0641 8.62473 14.7191C8.19347 14.3741 7.56418 14.444 7.21917 14.8753L7.00004 15.1492V6C7.00004 5.44771 6.55232 5 6.00004 5C5.44775 5 5.00004 5.44771 5.00004 6V15.1492L4.78091 14.8753C4.4359 14.444 3.8066 14.3741 3.37534 14.7191C2.94408 15.0641 2.87416 15.6934 3.21917 16.1247L5.21917 18.6247C5.40894 18.8619 5.69625 19 6.00004 19C6.30382 19 6.59113 18.8619 6.78091 18.6247L8.78091 16.1247ZM12 18C11.4478 18 11 17.5523 11 17C11 16.4477 11.4478 16 12 16H20C20.5523 16 21 16.4477 21 17C21 17.5523 20.5523 18 20 18H12ZM12 13C11.4478 13 11 12.5523 11 12C11 11.4477 11.4478 11 12 11H17C17.5523 11 18 11.4477 18 12C18 12.5523 17.5523 13 17 13H12ZM11 7C11 7.55229 11.4478 8 12 8H15C15.5523 8 16 7.55229 16 7C16 6.44771 15.5523 6 15 6H12C11.4478 6 11 6.44771 11 7Z" fill="#252525"/>
</svg>
