<svg width="16" height="16" viewBox="0 0 16 16" fill="none" xmlns="http://www.w3.org/2000/svg">
<path d="M14.7894 7.89164L8.75192 1.85727L8.34723 1.45258C8.25503 1.36098 8.13033 1.30957 8.00036 1.30957C7.87039 1.30957 7.74569 1.36098 7.65348 1.45258L1.2113 7.89164C1.11681 7.98576 1.04214 8.09784 0.991689 8.22129C0.941237 8.34474 0.916026 8.47704 0.917545 8.61039C0.923795 9.16039 1.38161 9.59945 1.93161 9.59945H2.59567V14.6885H13.405V9.59945H14.0832C14.3504 9.59945 14.6019 9.49477 14.791 9.3057C14.8841 9.21291 14.9578 9.10257 15.008 8.98107C15.0581 8.85957 15.0837 8.72933 15.0832 8.59789C15.0832 8.33227 14.9785 8.0807 14.7894 7.89164V7.89164ZM8.87536 13.5635H7.12536V10.376H8.87536V13.5635ZM12.28 8.47445V13.5635H9.87536V10.001C9.87536 9.6557 9.59567 9.37602 9.25036 9.37602H6.75036C6.40505 9.37602 6.12536 9.6557 6.12536 10.001V13.5635H3.72067V8.47445H2.22067L8.00192 2.69789L8.36286 3.05883L13.7816 8.47445H12.28Z" fill="#252525"/>
</svg>
