<svg width="16" height="16" viewBox="0 0 16 16" fill="none" xmlns="http://www.w3.org/2000/svg">
<path fill-rule="evenodd" clip-rule="evenodd" d="M10.6667 3.33337L10.8398 3.33337L11.3333 3.33337L11.3346 3.33337L13.3333 3.33337C13.7015 3.33337 14 3.63185 14 4.00004C14 4.36823 13.7015 4.66671 13.3333 4.66671H12.6667C12.6667 4.70071 12.6654 4.73482 12.6627 4.76897L12.0434 12.8201C11.9633 13.8621 11.0944 14.6667 10.0493 14.6667H5.95069C4.90561 14.6667 4.03673 13.8621 3.95658 12.8201L3.33726 4.76897C3.33463 4.73482 3.33333 4.70071 3.33333 4.66671H2.66667C2.29848 4.66671 2 4.36823 2 4.00004C2 3.63185 2.29848 3.33337 2.66667 3.33337L4.66588 3.33337L4.66667 3.33337L4.89552 3.33337L5.33333 3.33337C5.33333 2.22881 6.22876 1.33337 7.33333 1.33337H8.66667C9.77124 1.33337 10.6667 2.22881 10.6667 3.33337ZM9.99606 4.66671H11.3333L11.2308 6.00004L10.714 12.7178C10.6873 13.0652 10.3977 13.3334 10.0493 13.3334H8.66667V4.66671H9.33333L9.99606 4.66671ZM7.33333 4.66671H6.66667L6.00394 4.66671L4.66667 4.66671L4.76923 6.00004L5.28599 12.7178C5.3127 13.0652 5.60233 13.3334 5.95069 13.3334H7.33333V4.66671ZM7.33333 3.33337H6.66667C6.66667 2.96518 6.96514 2.66671 7.33333 2.66671L8.66667 2.66671C9.03486 2.66671 9.33333 2.96518 9.33333 3.33337H8.66667H8H7.33333Z" fill="#252525"/>
</svg>
