<svg width="24" height="24" viewBox="0 0 24 24" fill="none" xmlns="http://www.w3.org/2000/svg">
<path fill-rule="evenodd" clip-rule="evenodd" d="M19.874 9C19.4299 10.7252 17.8638 12 16 12C14.1362 12 12.5701 10.7252 12.126 9L3 9C2.44772 9 2 8.55229 2 8C2 7.44772 2.44772 7 3 7L12.126 7C12.5701 5.27477 14.1362 4 16 4C17.8638 4 19.4299 5.27477 19.874 7L21 7C21.5523 7 22 7.44772 22 8C22 8.55229 21.5523 9 21 9L19.874 9ZM18 8C18 6.89543 17.1046 6 16 6C14.8954 6 14 6.89543 14 8C14 9.10457 14.8954 10 16 10C17.1046 10 18 9.10457 18 8ZM8 12C6.13616 12 4.57006 13.2748 4.12602 15L3 15C2.44772 15 2 15.4477 2 16C2 16.5523 2.44771 17 3 17L4.12602 17C4.57006 18.7252 6.13616 20 8 20C9.86384 20 11.4299 18.7252 11.874 17H21C21.5523 17 22 16.5523 22 16C22 15.4477 21.5523 15 21 15H11.874C11.4299 13.2748 9.86384 12 8 12ZM8 18C6.89543 18 6 17.1046 6 16C6 14.8954 6.89543 14 8 14C9.10457 14 10 14.8954 10 16C10 17.1046 9.10457 18 8 18Z" fill="#252525"/>
</svg>
