<svg width="38" height="38" viewBox="0 0 38 38" fill="none" xmlns="http://www.w3.org/2000/svg">
<rect opacity="0.51" x="1" y="1" width="36" height="36" rx="18" fill="white" stroke="white"/>
<path fill-rule="evenodd" clip-rule="evenodd" d="M14.3264 19.2374C14.6555 18.9157 15.1831 18.9216 15.5049 19.2507C15.8266 19.5797 15.8207 20.1073 15.4916 20.4291L13.5442 22.3333L26.4999 22.3333C26.9602 22.3333 27.3333 22.7063 27.3333 23.1666C27.3333 23.6268 26.9602 23.9999 26.4999 23.9999L13.5442 23.9999L15.4916 25.9041C15.8207 26.2258 15.8266 26.7534 15.5049 27.0825C15.1831 27.4116 14.6555 27.4175 14.3264 27.0958L10.9173 23.7624C10.757 23.6056 10.6666 23.3908 10.6666 23.1666C10.6666 22.9423 10.757 22.7275 10.9173 22.5707L14.3264 19.2374ZM23.6734 10.9041C23.3444 10.5823 22.8167 10.5882 22.495 10.9173C22.1732 11.2464 22.1792 11.774 22.5082 12.0958L24.4557 13.9999L11.4999 13.9999C11.0397 13.9999 10.6666 14.373 10.6666 14.8333C10.6666 15.2935 11.0397 15.6666 11.4999 15.6666L24.4557 15.6666L22.5082 17.5707C22.1792 17.8925 22.1732 18.4201 22.495 18.7492C22.8167 19.0783 23.3443 19.0842 23.6734 18.7624L27.0825 15.4291C27.2429 15.2723 27.3333 15.0575 27.3333 14.8333C27.3333 14.609 27.2429 14.3942 27.0825 14.2374L23.6734 10.9041Z" fill="#252525"/>
</svg>
