<svg width="517" height="113" viewBox="0 0 517 113" fill="none" xmlns="http://www.w3.org/2000/svg">
<g clip-path="url(#clip0_126_1677)">
<path d="M12.9411 40.5225C10.623 40.5225 8.66224 40.1652 7.05877 39.4507C5.45529 38.7186 4.12197 37.7339 3.0588 36.4964L0.339867 40.2611H0V29.5422H0.392154C0.688448 31.0411 1.1416 32.4355 1.75162 33.7252C2.36164 34.9975 3.15466 36.113 4.13068 37.0716C5.10671 38.0128 6.28317 38.7535 7.66007 39.2938C9.03696 39.8167 10.6579 40.0781 12.5228 40.0781C14.3703 40.0781 15.9824 39.7557 17.3593 39.1108C18.7362 38.4485 19.8081 37.4899 20.575 36.235C21.3419 34.9627 21.7253 33.4028 21.7253 31.5553C21.7253 30.0215 21.3419 28.7231 20.575 27.6599C19.8255 26.5967 18.8234 25.673 17.5685 24.8887C16.3136 24.1044 14.9367 23.3811 13.4378 22.7188C11.9389 22.039 10.44 21.3419 8.9411 20.6273C7.4422 19.8953 6.06531 19.05 4.81042 18.0914C3.57296 17.1328 2.57079 15.9737 1.80391 14.6143C1.03703 13.2548 0.653589 11.6077 0.653589 9.67312C0.653589 7.75593 1.15032 6.07402 2.14377 4.62741C3.13723 3.16337 4.45312 2.03049 6.09145 1.22875C7.72978 0.409583 9.52498 0 11.477 0C13.2374 0 14.8321 0.278865 16.2613 0.836596C17.7079 1.39432 18.9454 2.24835 19.9737 3.39866L22.6665 0H23.0063V10.7189H22.6403C22.2918 8.38337 21.6207 6.45746 20.6273 4.94114C19.6513 3.42481 18.4225 2.30935 16.941 1.59476C15.477 0.862739 13.83 0.496729 11.9999 0.496729C9.49012 0.496729 7.58164 1.11546 6.27446 2.35292C4.98471 3.57296 4.33983 5.19386 4.33983 7.21563C4.33983 8.60995 4.71456 9.78641 5.46401 10.745C6.21346 11.7036 7.1982 12.5489 8.41823 13.2809C9.63826 14.013 10.9803 14.7101 12.4443 15.3724C13.9258 16.0347 15.3986 16.7493 16.8626 17.5162C18.3266 18.2831 19.6687 19.1894 20.8887 20.2351C22.1087 21.2634 23.0935 22.5096 23.8429 23.9737C24.5924 25.4377 24.9671 27.2067 24.9671 29.2808C24.9671 31.5466 24.4791 33.5248 23.5031 35.2154C22.527 36.8886 21.1327 38.1958 19.3201 39.1369C17.5249 40.0607 15.3986 40.5225 12.9411 40.5225Z" fill="#2B2B2B"/>
<path d="M28.7044 39.7382V39.3461H31.9462V0.915027H28.7044V0.522871H36.6259V39.3461H39.8416V39.7382H28.7044ZM44.6781 39.7382V39.3461H47.8677V23.6861C47.8677 22.222 47.8067 20.8887 47.6847 19.6861C47.5626 18.4835 47.2751 17.5249 46.8219 16.8103C46.3688 16.0783 45.6629 15.7123 44.7043 15.7123C42.9788 15.7123 41.5758 16.1306 40.4952 16.9672C39.432 17.8038 38.6215 18.8669 38.0638 20.1567C37.5061 21.4464 37.1227 22.7972 36.9135 24.209C36.7218 25.6207 36.6259 26.9017 36.6259 28.0521L36.3383 28.2612C36.3383 27.0586 36.4342 25.7078 36.6259 24.209C36.8176 22.7101 37.2098 21.2722 37.8024 19.8953C38.395 18.5184 39.2839 17.3855 40.469 16.4966C41.6542 15.6077 43.2315 15.1633 45.201 15.1633C47.2228 15.1633 48.7565 15.5031 49.8023 16.1829C50.8655 16.8626 51.5888 17.8038 51.9722 19.0064C52.3556 20.1916 52.5474 21.5423 52.5474 23.0586V39.3461H55.7892V39.7382H44.6781Z" fill="#2B2B2B"/>
<path d="M72.0235 40.2611C69.566 40.2611 67.4397 39.6859 65.6445 38.5356C63.8667 37.3853 62.4898 35.8603 61.5138 33.9605C60.5378 32.0607 60.0497 29.978 60.0497 27.7122C60.0497 25.4464 60.5378 23.3636 61.5138 21.4639C62.4898 19.5641 63.8667 18.0391 65.6445 16.8888C67.4397 15.7384 69.566 15.1633 72.0235 15.1633C74.481 15.1633 76.6073 15.7384 78.4025 16.8888C80.1977 18.0391 81.5746 19.5641 82.5332 21.4639C83.5092 23.3636 83.9973 25.4464 83.9973 27.7122C83.9973 29.978 83.5092 32.0607 82.5332 33.9605C81.5746 35.8603 80.1977 37.3853 78.4025 38.5356C76.6073 39.6859 74.481 40.2611 72.0235 40.2611ZM72.0235 39.869C73.4353 39.869 74.5769 39.4768 75.4483 38.6925C76.3198 37.8908 76.9734 36.8712 77.4091 35.6337C77.8622 34.3962 78.1585 33.0716 78.298 31.6599C78.4548 30.2481 78.5333 28.9322 78.5333 27.7122C78.5333 26.4747 78.4548 25.1588 78.298 23.7645C78.1585 22.3528 77.8622 21.0282 77.4091 19.7907C76.9734 18.5532 76.3198 17.5423 75.4483 16.758C74.5769 15.9563 73.4353 15.5554 72.0235 15.5554C70.5943 15.5554 69.444 15.9563 68.5726 16.758C67.7185 17.5423 67.0649 18.5532 66.6118 19.7907C66.1761 21.0282 65.8798 22.3528 65.7229 23.7645C65.566 25.1588 65.4876 26.4747 65.4876 27.7122C65.4876 28.9322 65.566 30.2481 65.7229 31.6599C65.8798 33.0716 66.1761 34.3962 66.6118 35.6337C67.0649 36.8712 67.7185 37.8908 68.5726 38.6925C69.444 39.4768 70.5943 39.869 72.0235 39.869Z" fill="#2B2B2B"/>
<path d="M88.2423 52.81V52.4179H91.4841V16.0783H88.2423V15.6861H96.1638V24.6534C96.5473 21.6556 97.4449 19.3375 98.8566 17.6992C100.286 16.0434 102.133 15.2156 104.399 15.2156C106.281 15.2156 108.059 15.7123 109.732 16.7057C111.406 17.6992 112.765 19.1284 113.811 20.9933C114.856 22.8582 115.379 25.0978 115.379 27.7122C115.379 30.3265 114.856 32.5749 113.811 34.4572C112.765 36.3221 111.406 37.76 109.732 38.7709C108.059 39.7644 106.281 40.2611 104.399 40.2611C102.133 40.2611 100.286 39.4245 98.8566 37.7513C97.4449 36.0781 96.5473 33.7601 96.1638 30.7971V52.4179H99.3795V52.81H88.2423ZM103.562 39.5552C104.992 39.5552 106.177 39.0585 107.118 38.065C108.059 37.0542 108.765 35.6598 109.236 33.8821C109.706 32.1043 109.941 30.0477 109.941 27.7122C109.941 25.3767 109.706 23.3288 109.236 21.5684C108.765 19.7907 108.059 18.4051 107.118 17.4116C106.177 16.4182 104.992 15.9214 103.562 15.9214C102.22 15.9214 100.983 16.3659 99.8501 17.2548C98.7346 18.1436 97.837 19.4683 97.1573 21.2286C96.495 22.9715 96.1638 25.1327 96.1638 27.7122C96.1638 30.2917 96.495 32.4616 97.1573 34.2219C97.837 35.9823 98.7346 37.3156 99.8501 38.2219C100.983 39.1108 102.22 39.5552 103.562 39.5552Z" fill="#2B2B2B"/>
<path d="M145.501 40.2611C143.044 40.2611 140.917 39.6859 139.122 38.5356C137.344 37.3853 135.968 35.8603 134.992 33.9605C134.016 32.0607 133.527 29.978 133.527 27.7122C133.527 25.4464 134.016 23.3636 134.992 21.4639C135.968 19.5641 137.344 18.0391 139.122 16.8888C140.917 15.7384 143.044 15.1633 145.501 15.1633C147.959 15.1633 150.085 15.7384 151.88 16.8888C153.675 18.0391 155.052 19.5641 156.011 21.4639C156.987 23.3636 157.475 25.4464 157.475 27.7122C157.475 29.978 156.987 32.0607 156.011 33.9605C155.052 35.8603 153.675 37.3853 151.88 38.5356C150.085 39.6859 147.959 40.2611 145.501 40.2611ZM145.501 39.869C146.913 39.869 148.055 39.4768 148.926 38.6925C149.798 37.8908 150.451 36.8712 150.887 35.6337C151.34 34.3962 151.636 33.0716 151.776 31.6599C151.933 30.2481 152.011 28.9322 152.011 27.7122C152.011 26.4747 151.933 25.1588 151.776 23.7645C151.636 22.3528 151.34 21.0282 150.887 19.7907C150.451 18.5532 149.798 17.5423 148.926 16.758C148.055 15.9563 146.913 15.5554 145.501 15.5554C144.072 15.5554 142.922 15.9563 142.05 16.758C141.196 17.5423 140.543 18.5532 140.09 19.7907C139.654 21.0282 139.358 22.3528 139.201 23.7645C139.044 25.1588 138.965 26.4747 138.965 27.7122C138.965 28.9322 139.044 30.2481 139.201 31.6599C139.358 33.0716 139.654 34.3962 140.09 35.6337C140.543 36.8712 141.196 37.8908 142.05 38.6925C142.922 39.4768 144.072 39.869 145.501 39.869Z" fill="#2B2B2B"/>
<path d="M172.308 40.2611C170.286 40.2611 168.744 39.9212 167.681 39.2415C166.635 38.5443 165.92 37.6032 165.537 36.418C165.154 35.2328 164.962 33.8821 164.962 32.3657V16.0783H161.72V15.6861H169.642V31.7383C169.642 33.2023 169.703 34.5357 169.825 35.7383C169.964 36.9409 170.26 37.9082 170.713 38.6402C171.167 39.3548 171.872 39.7121 172.831 39.7121C174.557 39.7121 175.951 39.2938 177.014 38.4572C178.095 37.6206 178.905 36.5574 179.445 35.2677C180.003 33.9779 180.378 32.6272 180.57 31.2154C180.779 29.8037 180.883 28.5226 180.883 27.3723L181.171 27.1632C181.171 28.3658 181.075 29.7165 180.883 31.2154C180.709 32.7143 180.334 34.1522 179.759 35.5291C179.184 36.906 178.304 38.0389 177.119 38.9278C175.933 39.8167 174.33 40.2611 172.308 40.2611ZM180.883 39.7382V16.0783H177.223V15.6861H185.615V39.3461H188.831V39.7382H180.883Z" fill="#2B2B2B"/>
<path d="M199.94 28.2089C199.94 26.6054 200.053 25.0368 200.28 23.5031C200.506 21.9519 200.89 20.5489 201.43 19.294C201.97 18.0391 202.702 17.0369 203.626 16.2874C204.55 15.538 205.692 15.1633 207.051 15.1633C208.027 15.1633 208.864 15.355 209.561 15.7384C210.258 16.1219 210.79 16.6273 211.156 17.2548C211.539 17.8822 211.731 18.5707 211.731 19.3201C211.731 20.209 211.461 20.9584 210.92 21.5684C210.38 22.1785 209.639 22.4835 208.698 22.4835C207.739 22.4835 206.981 22.222 206.424 21.6992C205.883 21.1589 205.613 20.4966 205.613 19.7123C205.613 18.7014 205.936 17.9432 206.58 17.4378C207.243 16.9149 207.949 16.6535 208.698 16.6535C209.256 16.6535 209.761 16.7755 210.214 17.0195C210.668 17.2635 211.025 17.5859 211.286 17.9868C211.548 18.3876 211.678 18.8321 211.678 19.3201H211.312C211.312 18.6404 211.129 18.0216 210.763 17.4639C210.415 16.8888 209.918 16.4356 209.273 16.1044C208.628 15.7559 207.879 15.5816 207.025 15.5816C205.753 15.5816 204.681 15.9476 203.809 16.6796C202.938 17.3942 202.232 18.3615 201.692 19.5815C201.169 20.7841 200.785 22.1436 200.541 23.6599C200.315 25.1588 200.201 26.6752 200.201 28.2089H199.94ZM200.201 15.6861V39.3461H203.522V39.7382H192.306V39.3461H195.548V16.0783H192.306V15.6861H200.201Z" fill="#2B2B2B"/>
<path d="M236.812 0.522871V39.3461H241.074V39.7382H227.845V39.3461H232.132V0.915027H227.845V0.522871H236.812Z" fill="#2B2B2B"/>
<path d="M250.398 6.32674C249.544 6.32674 248.803 6.02174 248.176 5.41172C247.566 4.78427 247.261 4.04354 247.261 3.18952C247.261 2.31806 247.566 1.57733 248.176 0.967314C248.803 0.357296 249.544 0.0522865 250.398 0.0522865C251.27 0.0522865 252.01 0.357296 252.62 0.967314C253.23 1.57733 253.535 2.31806 253.535 3.18952C253.535 4.04354 253.23 4.78427 252.62 5.41172C252.01 6.02174 251.27 6.32674 250.398 6.32674ZM252.725 15.6861V39.3461H255.941V39.7382H244.804V39.3461H248.019V16.0783H244.804V15.6861H252.725Z" fill="#2B2B2B"/>
<path d="M267.603 15.6861V39.3461H270.818V39.7382H259.707V39.3461H262.949V16.0783H259.707V15.6861H267.603ZM282.505 23.0586V39.3461H285.746V39.7382H274.635V39.3461H277.851V23.6338C277.851 22.1698 277.799 20.8364 277.694 19.6338C277.607 18.4312 277.354 17.4813 276.936 16.7842C276.535 16.0696 275.855 15.7123 274.897 15.7123C273.415 15.7123 272.195 16.1306 271.237 16.9672C270.278 17.8038 269.529 18.8669 268.988 20.1567C268.466 21.4464 268.099 22.7972 267.89 24.209C267.699 25.6033 267.603 26.8669 267.603 27.9998L267.341 28.2089C267.341 27.0063 267.437 25.6643 267.629 24.1828C267.821 22.6839 268.195 21.2547 268.753 19.8953C269.328 18.5184 270.156 17.3855 271.237 16.4966C272.317 15.6077 273.746 15.1633 275.524 15.1633C277.319 15.1633 278.723 15.5031 279.733 16.1829C280.762 16.8626 281.476 17.8038 281.877 19.0064C282.295 20.1916 282.505 21.5423 282.505 23.0586ZM297.406 23.0586V39.3461H300.622V39.7382H289.511V39.3461H292.727V23.6338C292.727 22.1698 292.674 20.8364 292.57 19.6338C292.465 18.4312 292.204 17.4813 291.786 16.7842C291.367 16.0696 290.679 15.7123 289.72 15.7123C288.221 15.7123 286.993 16.1306 286.034 16.9672C285.093 17.8038 284.37 18.8669 283.864 20.1567C283.359 21.4464 283.001 22.7972 282.792 24.209C282.6 25.6033 282.505 26.8669 282.505 27.9998L282.243 28.2089C282.243 27.0063 282.33 25.6643 282.505 24.1828C282.696 22.6839 283.062 21.2547 283.603 19.8953C284.16 18.5184 284.971 17.3855 286.034 16.4966C287.115 15.6077 288.544 15.1633 290.322 15.1633C292.134 15.1633 293.555 15.5031 294.583 16.1829C295.611 16.8626 296.335 17.8038 296.753 19.0064C297.189 20.1916 297.406 21.5423 297.406 23.0586Z" fill="#2B2B2B"/>
<path d="M309.936 6.32674C309.082 6.32674 308.341 6.02174 307.714 5.41172C307.104 4.78427 306.799 4.04354 306.799 3.18952C306.799 2.31806 307.104 1.57733 307.714 0.967314C308.341 0.357296 309.082 0.0522865 309.936 0.0522865C310.808 0.0522865 311.548 0.357296 312.158 0.967314C312.768 1.57733 313.073 2.31806 313.073 3.18952C313.073 4.04354 312.768 4.78427 312.158 5.41172C311.548 6.02174 310.808 6.32674 309.936 6.32674ZM312.263 15.6861V39.3461H315.479V39.7382H304.341V39.3461H307.557V16.0783H304.341V15.6861H312.263Z" fill="#2B2B2B"/>
<path d="M327.298 40.1042C325.868 40.1042 324.805 39.7905 324.108 39.1631C323.428 38.5356 322.975 37.7513 322.749 36.8102C322.539 35.8516 322.435 34.893 322.435 33.9344V10.4574C323.219 10.4574 324.064 10.2919 324.971 9.9607C325.895 9.62955 326.618 9.27225 327.141 8.88882V35.7121C327.141 37.0193 327.298 37.8995 327.611 38.3526C327.925 38.7884 328.439 39.0062 329.154 39.0062C330.095 39.0062 331.001 38.5531 331.873 37.6467C332.762 36.7404 333.459 35.7034 333.964 34.5357L334.304 34.7187C333.659 36.3047 332.735 37.6032 331.533 38.6141C330.33 39.6075 328.918 40.1042 327.298 40.1042ZM318.722 16.0783V15.6861H332.735V16.0783H318.722Z" fill="#2B2B2B"/>
<path d="M349.801 40.2611C347.536 40.2611 345.488 39.7644 343.658 38.7709C341.845 37.76 340.398 36.3221 339.318 34.4572C338.255 32.5749 337.723 30.3265 337.723 27.7122C337.723 25.0978 338.237 22.8582 339.266 20.9933C340.294 19.111 341.697 17.6731 343.475 16.6796C345.27 15.6687 347.309 15.1633 349.592 15.1633C352.172 15.1633 354.237 15.6774 355.788 16.7057C357.357 17.7341 358.49 19.0848 359.187 20.758C359.902 22.4138 360.259 24.1915 360.259 26.0913H341.226V25.6991H354.716C354.734 24.7231 354.682 23.6512 354.56 22.4835C354.455 21.3157 354.228 20.209 353.88 19.1632C353.531 18.1175 353.017 17.2548 352.337 16.575C351.658 15.8953 350.743 15.5554 349.592 15.5554C348.303 15.5554 347.239 15.904 346.403 16.6012C345.584 17.2983 344.93 18.2308 344.442 19.3985C343.971 20.5663 343.64 21.8735 343.449 23.3201C343.257 24.7493 343.161 26.2133 343.161 27.7122C343.161 29.1937 343.257 30.6577 343.449 32.1043C343.658 33.5509 344.015 34.8494 344.52 35.9997C345.043 37.15 345.749 38.0738 346.638 38.7709C347.544 39.4507 348.703 39.7905 350.115 39.7905C352.712 39.7905 354.838 39.0846 356.494 37.6729C358.167 36.2437 359.326 34.5095 359.971 32.4703H360.416C359.736 34.6838 358.516 36.54 356.756 38.0389C354.995 39.5204 352.677 40.2611 349.801 40.2611Z" fill="#2B2B2B"/>
<path d="M376.226 40.2088C374.343 40.2088 372.566 39.7121 370.892 38.7186C369.219 37.7252 367.86 36.296 366.814 34.4311C365.768 32.5662 365.245 30.3265 365.245 27.7122C365.245 25.0978 365.768 22.8582 366.814 20.9933C367.86 19.111 369.219 17.6731 370.892 16.6796C372.566 15.6687 374.343 15.1633 376.226 15.1633C378.509 15.1633 380.348 15.9999 381.742 17.6731C383.154 19.3288 384.043 21.6469 384.409 24.6272V0.915027H381.193V0.522871H389.141V39.3461H392.356V39.7382H384.409V30.8233C384.043 33.7862 383.154 36.0956 381.742 37.7513C380.348 39.3897 378.509 40.2088 376.226 40.2088ZM377.036 39.5291C378.378 39.5291 379.607 39.0846 380.722 38.1958C381.855 37.2895 382.753 35.9648 383.415 34.2219C384.077 32.4616 384.409 30.2917 384.409 27.7122C384.409 25.1327 384.077 22.9715 383.415 21.2286C382.753 19.4683 381.855 18.1349 380.722 17.2286C379.607 16.3223 378.378 15.8692 377.036 15.8692C375.607 15.8692 374.422 16.3746 373.481 17.3855C372.539 18.3789 371.834 19.7645 371.363 21.5423C370.91 23.3201 370.683 25.3767 370.683 27.7122C370.683 30.0477 370.91 32.1043 371.363 33.8821C371.834 35.6598 372.539 37.0454 373.481 38.0389C374.422 39.0324 375.607 39.5291 377.036 39.5291Z" fill="#2B2B2B"/>
<path d="M12.1306 112.261C9.86484 112.261 7.81693 111.764 5.98688 110.771C4.17426 109.76 2.72765 108.322 1.64705 106.457C0.583873 104.575 0.0522873 102.327 0.0522873 99.7122C0.0522873 97.0978 0.566444 94.8582 1.59476 92.9933C2.62307 91.111 4.02611 89.6731 5.80387 88.6796C7.59907 87.6687 9.63826 87.1633 11.9215 87.1633C14.501 87.1633 16.5663 87.6774 18.1175 88.7057C19.6861 89.7341 20.819 91.0848 21.5162 92.758C22.2308 94.4138 22.588 96.1915 22.588 98.0913H3.55553V97.6991H17.0456C17.063 96.7231 17.0108 95.6512 16.8888 94.4835C16.7842 93.3157 16.5576 92.209 16.209 91.1632C15.8604 90.1175 15.3463 89.2548 14.6665 88.575C13.9868 87.8953 13.0718 87.5554 11.9215 87.5554C10.6317 87.5554 9.56855 87.904 8.73195 88.6012C7.91279 89.2983 7.2592 90.2308 6.77119 91.3985C6.3006 92.5663 5.96945 93.8735 5.77773 95.3201C5.58601 96.7493 5.49015 98.2133 5.49015 99.7122C5.49015 101.194 5.58601 102.658 5.77773 104.104C5.98688 105.551 6.34417 106.849 6.84962 108C7.37249 109.15 8.07836 110.074 8.96725 110.771C9.87356 111.451 11.0326 111.791 12.4443 111.791C15.0413 111.791 17.1676 111.085 18.8234 109.673C20.4966 108.244 21.6556 106.51 22.3005 104.47H22.7449C22.0652 106.684 20.8451 108.54 19.0848 110.039C17.3245 111.52 15.0064 112.261 12.1306 112.261Z" fill="#2B2B2B"/>
<path d="M38.5548 112.209C36.6725 112.209 34.8947 111.712 33.2215 110.719C31.5483 109.725 30.1889 108.296 29.1431 106.431C28.0974 104.566 27.5745 102.327 27.5745 99.7122C27.5745 97.0978 28.0974 94.8582 29.1431 92.9933C30.1889 91.111 31.5483 89.6731 33.2215 88.6796C34.8947 87.6687 36.6725 87.1633 38.5548 87.1633C40.838 87.1633 42.6768 87.9999 44.0711 89.6731C45.4829 91.3288 46.3718 93.6469 46.7378 96.6273V72.915H43.5221V72.5229H51.4698V111.346H54.6854V111.738H46.7378V102.823C46.3718 105.786 45.4829 108.096 44.0711 109.751C42.6768 111.39 40.838 112.209 38.5548 112.209ZM39.3653 111.529C40.7073 111.529 41.9361 111.085 43.0515 110.196C44.1844 109.289 45.082 107.965 45.7443 106.222C46.4066 104.462 46.7378 102.292 46.7378 99.7122C46.7378 97.1327 46.4066 94.9715 45.7443 93.2286C45.082 91.4682 44.1844 90.1349 43.0515 89.2286C41.9361 88.3223 40.7073 87.8691 39.3653 87.8691C37.9361 87.8691 36.7509 88.3746 35.8098 89.3855C34.8686 90.3789 34.1627 91.7645 33.6921 93.5423C33.239 95.3201 33.0124 97.3767 33.0124 99.7122C33.0124 102.048 33.239 104.104 33.6921 105.882C34.1627 107.66 34.8686 109.045 35.8098 110.039C36.7509 111.032 37.9361 111.529 39.3653 111.529Z" fill="#2B2B2B"/>
<path d="M64.0232 78.3267C63.1691 78.3267 62.4284 78.0217 61.801 77.4117C61.1909 76.7843 60.8859 76.0435 60.8859 75.1895C60.8859 74.3181 61.1909 73.5773 61.801 72.9673C62.4284 72.3573 63.1691 72.0523 64.0232 72.0523C64.8946 72.0523 65.6353 72.3573 66.2454 72.9673C66.8554 73.5773 67.1604 74.3181 67.1604 75.1895C67.1604 76.0435 66.8554 76.7843 66.2454 77.4117C65.6353 78.0217 64.8946 78.3267 64.0232 78.3267ZM66.3499 87.6861V111.346H69.5656V111.738H58.4284V111.346H61.6441V88.0783H58.4284V87.6861H66.3499Z" fill="#2B2B2B"/>
<path d="M81.3845 112.104C79.9554 112.104 78.8922 111.791 78.195 111.163C77.5153 110.536 77.0621 109.751 76.8356 108.81C76.6264 107.852 76.5218 106.893 76.5218 105.934V82.4574C77.3061 82.4574 78.1515 82.2919 79.0578 81.9607C79.9815 81.6295 80.7048 81.2723 81.2277 80.8888V107.712C81.2277 109.019 81.3845 109.899 81.6983 110.353C82.012 110.788 82.5261 111.006 83.2407 111.006C84.1819 111.006 85.0882 110.553 85.9597 109.647C86.8485 108.74 87.5457 107.703 88.0512 106.536L88.391 106.719C87.7461 108.305 86.8224 109.603 85.6198 110.614C84.4172 111.608 83.0054 112.104 81.3845 112.104ZM72.8094 88.0783V87.6861H86.8224V88.0783H72.8094Z" fill="#2B2B2B"/>
<path d="M96.8558 78.3267C96.0018 78.3267 95.2611 78.0217 94.6336 77.4117C94.0236 76.7843 93.7186 76.0435 93.7186 75.1895C93.7186 74.3181 94.0236 73.5773 94.6336 72.9673C95.2611 72.3573 96.0018 72.0523 96.8558 72.0523C97.7273 72.0523 98.468 72.3573 99.078 72.9673C99.688 73.5773 99.993 74.3181 99.993 75.1895C99.993 76.0435 99.688 76.7843 99.078 77.4117C98.468 78.0217 97.7273 78.3267 96.8558 78.3267ZM99.1826 87.6861V111.346H102.398V111.738H91.2611V111.346H94.4768V88.0783H91.2611V87.6861H99.1826Z" fill="#2B2B2B"/>
<path d="M118.949 112.261C116.492 112.261 114.365 111.686 112.57 110.536C110.792 109.385 109.415 107.86 108.439 105.961C107.463 104.061 106.975 101.978 106.975 99.7122C106.975 97.4464 107.463 95.3636 108.439 93.4639C109.415 91.5641 110.792 90.0391 112.57 88.8887C114.365 87.7384 116.492 87.1633 118.949 87.1633C121.407 87.1633 123.533 87.7384 125.328 88.8887C127.123 90.0391 128.5 91.5641 129.459 93.4639C130.435 95.3636 130.923 97.4464 130.923 99.7122C130.923 101.978 130.435 104.061 129.459 105.961C128.5 107.86 127.123 109.385 125.328 110.536C123.533 111.686 121.407 112.261 118.949 112.261ZM118.949 111.869C120.361 111.869 121.503 111.477 122.374 110.692C123.245 109.891 123.899 108.871 124.335 107.634C124.788 106.396 125.084 105.072 125.224 103.66C125.381 102.248 125.459 100.932 125.459 99.7122C125.459 98.4747 125.381 97.1588 125.224 95.7645C125.084 94.3528 124.788 93.0282 124.335 91.7907C123.899 90.5532 123.245 89.5423 122.374 88.758C121.503 87.9563 120.361 87.5554 118.949 87.5554C117.52 87.5554 116.37 87.9563 115.498 88.758C114.644 89.5423 113.991 90.5532 113.537 91.7907C113.102 93.0282 112.805 94.3528 112.649 95.7645C112.492 97.1588 112.413 98.4747 112.413 99.7122C112.413 100.932 112.492 102.248 112.649 103.66C112.805 105.072 113.102 106.396 113.537 107.634C113.991 108.871 114.644 109.891 115.498 110.692C116.37 111.477 117.52 111.869 118.949 111.869Z" fill="#2B2B2B"/>
<path d="M143.063 87.6861V111.346H146.279V111.738H135.168V111.346H138.41V88.0783H135.168V87.6861H143.063ZM159.011 95.0586V111.346H162.253V111.738H151.142V111.346H154.331V95.6861C154.331 94.222 154.27 92.8887 154.148 91.6861C154.026 90.4835 153.739 89.5249 153.285 88.8103C152.832 88.0783 152.126 87.7123 151.168 87.7123C149.442 87.7123 148.039 88.1306 146.959 88.9672C145.896 89.8038 145.076 90.867 144.501 92.1567C143.944 93.4464 143.56 94.7972 143.351 96.209C143.159 97.6207 143.063 98.9017 143.063 100.052L142.776 100.261C142.776 99.0586 142.872 97.7079 143.063 96.209C143.255 94.7101 143.647 93.2722 144.24 91.8953C144.832 90.5184 145.721 89.3855 146.906 88.4966C148.092 87.6077 149.678 87.1633 151.665 87.1633C153.704 87.1633 155.246 87.5031 156.292 88.1829C157.355 88.8626 158.07 89.8038 158.436 91.0064C158.819 92.1916 159.011 93.5423 159.011 95.0586Z" fill="#2B2B2B"/>
<path d="M191.48 112.261C189.197 112.261 187.158 111.764 185.363 110.771C183.568 109.76 182.156 108.322 181.128 106.457C180.099 104.575 179.585 102.327 179.585 99.7122C179.585 97.4464 180.047 95.3636 180.971 93.4639C181.912 91.5641 183.28 90.0391 185.075 88.8887C186.888 87.7384 189.11 87.1633 191.742 87.1633C193.52 87.1633 195.053 87.477 196.343 88.1044C197.633 88.7145 198.626 89.5423 199.324 90.5881C200.021 91.6164 200.369 92.7493 200.369 93.9867C200.369 94.9279 200.099 95.6599 199.559 96.1828C199.019 96.7057 198.347 96.9671 197.546 96.9671C197.11 96.9671 196.657 96.8713 196.186 96.6795C195.733 96.4704 195.35 96.1567 195.036 95.7384C194.722 95.3026 194.565 94.7362 194.565 94.039C194.565 93.1153 194.862 92.4181 195.454 91.9475C196.047 91.4595 196.744 91.2155 197.546 91.2155C198.295 91.2155 198.94 91.4508 199.48 91.9214C200.038 92.3746 200.317 93.063 200.317 93.9867H199.951C199.951 92.9584 199.724 92.0521 199.271 91.2678C198.835 90.4835 198.243 89.8212 197.493 89.2809C196.761 88.7232 195.942 88.3049 195.036 88.026C194.13 87.7471 193.206 87.6077 192.265 87.6077C190.731 87.6077 189.485 87.9999 188.526 88.7842C187.585 89.5685 186.853 90.5794 186.33 91.8168C185.825 93.0543 185.485 94.3702 185.311 95.7645C185.136 97.1588 185.049 98.4747 185.049 99.7122C185.049 101.211 185.145 102.675 185.337 104.104C185.528 105.533 185.868 106.823 186.356 107.974C186.844 109.124 187.524 110.039 188.395 110.719C189.284 111.398 190.426 111.738 191.82 111.738C193.371 111.738 194.705 111.425 195.82 110.797C196.936 110.17 197.868 109.307 198.618 108.209C199.367 107.111 199.977 105.865 200.448 104.47H200.866C200.186 106.684 199.114 108.54 197.65 110.039C196.186 111.52 194.13 112.261 191.48 112.261Z" fill="#2B2B2B"/>
<path d="M218.111 112.261C215.653 112.261 213.527 111.686 211.732 110.536C209.954 109.385 208.577 107.86 207.601 105.961C206.625 104.061 206.137 101.978 206.137 99.7122C206.137 97.4464 206.625 95.3636 207.601 93.4639C208.577 91.5641 209.954 90.0391 211.732 88.8887C213.527 87.7384 215.653 87.1633 218.111 87.1633C220.568 87.1633 222.695 87.7384 224.49 88.8887C226.285 90.0391 227.662 91.5641 228.621 93.4639C229.597 95.3636 230.085 97.4464 230.085 99.7122C230.085 101.978 229.597 104.061 228.621 105.961C227.662 107.86 226.285 109.385 224.49 110.536C222.695 111.686 220.568 112.261 218.111 112.261ZM218.111 111.869C219.523 111.869 220.664 111.477 221.536 110.692C222.407 109.891 223.061 108.871 223.497 107.634C223.95 106.396 224.246 105.072 224.385 103.66C224.542 102.248 224.621 100.932 224.621 99.7122C224.621 98.4747 224.542 97.1588 224.385 95.7645C224.246 94.3528 223.95 93.0282 223.497 91.7907C223.061 90.5532 222.407 89.5423 221.536 88.758C220.664 87.9563 219.523 87.5554 218.111 87.5554C216.682 87.5554 215.531 87.9563 214.66 88.758C213.806 89.5423 213.152 90.5532 212.699 91.7907C212.263 93.0282 211.967 94.3528 211.81 95.7645C211.653 97.1588 211.575 98.4747 211.575 99.7122C211.575 100.932 211.653 102.248 211.81 103.66C211.967 105.072 212.263 106.396 212.699 107.634C213.152 108.871 213.806 109.891 214.66 110.692C215.531 111.477 216.682 111.869 218.111 111.869Z" fill="#2B2B2B"/>
<path d="M243.297 72.5229V111.346H247.558V111.738H234.33V111.346H238.617V72.915H234.33V72.5229H243.297Z" fill="#2B2B2B"/>
<path d="M259.994 72.5229V111.346H264.256V111.738H251.027V111.346H255.314V72.915H251.027V72.5229H259.994Z" fill="#2B2B2B"/>
<path d="M287.933 112.261C287.114 112.261 286.338 112.139 285.606 111.895C284.892 111.651 284.308 111.207 283.855 110.562C283.419 109.917 283.201 108.984 283.201 107.764V95.8168C283.201 94.5619 283.105 93.3157 282.913 92.0783C282.722 90.8408 282.295 89.8125 281.632 88.9933C280.97 88.1742 279.942 87.7646 278.548 87.7646C277.641 87.7646 276.726 87.8779 275.802 88.1044C274.879 88.331 274.025 88.6535 273.24 89.0718C272.473 89.4726 271.855 89.9781 271.384 90.5881C270.914 91.1807 270.678 91.8517 270.678 92.6011H270.26C270.26 91.7123 270.548 91.0151 271.123 90.5097C271.715 89.9868 272.36 89.7253 273.057 89.7253C273.807 89.7253 274.487 89.9694 275.097 90.4574C275.724 90.9279 276.038 91.6077 276.038 92.4966C276.038 93.5423 275.715 94.3005 275.07 94.7711C274.443 95.2416 273.772 95.4769 273.057 95.4769C272.256 95.4769 271.576 95.2329 271.018 94.7449C270.478 94.2569 270.208 93.5423 270.208 92.6011C270.208 91.782 270.469 91.0499 270.992 90.4051C271.515 89.7428 272.212 89.185 273.083 88.7319C273.972 88.2613 274.975 87.904 276.09 87.66C277.223 87.3986 278.382 87.2678 279.567 87.2678C281.972 87.2678 283.759 87.6861 284.927 88.5227C286.112 89.3593 286.896 90.4312 287.279 91.7384C287.663 93.0456 287.855 94.405 287.855 95.8168V109.15C287.855 109.76 287.968 110.292 288.194 110.745C288.439 111.181 288.918 111.398 289.632 111.398C290.208 111.398 290.835 111.137 291.515 110.614C292.194 110.091 292.726 109.394 293.109 108.523L293.319 108.862C292.865 109.856 292.16 110.675 291.201 111.32C290.26 111.947 289.171 112.261 287.933 112.261ZM275.829 112.261C273.563 112.261 271.75 111.686 270.391 110.536C269.049 109.368 268.378 107.791 268.378 105.804C268.378 103.468 269.362 101.664 271.332 100.392C273.319 99.1196 276.168 98.4834 279.881 98.4834H285.632V98.8233H279.881C278.347 98.8233 277.127 99.1893 276.221 99.9213C275.314 100.636 274.661 101.507 274.26 102.536C273.877 103.564 273.685 104.557 273.685 105.516C273.685 106.388 273.798 107.276 274.025 108.183C274.251 109.089 274.635 109.847 275.175 110.457C275.715 111.067 276.447 111.372 277.371 111.372C278.382 111.372 279.332 111.059 280.221 110.431C281.11 109.786 281.824 108.793 282.364 107.451C282.922 106.109 283.201 104.374 283.201 102.248H283.462C283.462 104.235 283.192 105.987 282.652 107.503C282.112 109.002 281.284 110.17 280.168 111.006C279.053 111.843 277.606 112.261 275.829 112.261Z" fill="#2B2B2B"/>
<path d="M311.25 112.261C308.984 112.261 307.137 111.425 305.707 109.751C304.296 108.078 303.398 105.76 303.015 102.797V111.738H295.093V111.346H298.335V72.915H295.093V72.5229H303.015V96.6534C303.398 93.6556 304.296 91.3375 305.707 89.6992C307.137 88.0434 308.984 87.2156 311.25 87.2156C313.132 87.2156 314.91 87.7123 316.583 88.7057C318.256 89.6992 319.616 91.1284 320.662 92.9933C321.707 94.8582 322.23 97.0978 322.23 99.7122C322.23 102.327 321.707 104.575 320.662 106.457C319.616 108.322 318.256 109.76 316.583 110.771C314.91 111.764 313.132 112.261 311.25 112.261ZM310.413 111.555C311.842 111.555 313.028 111.059 313.969 110.065C314.91 109.054 315.616 107.66 316.086 105.882C316.557 104.104 316.792 102.048 316.792 99.7122C316.792 97.3767 316.557 95.3288 316.086 93.5685C315.616 91.7907 314.91 90.4051 313.969 89.4116C313.028 88.4182 311.842 87.9214 310.413 87.9214C309.071 87.9214 307.834 88.3659 306.701 89.2548C305.585 90.1436 304.688 91.4682 304.008 93.2286C303.346 94.9715 303.015 97.1327 303.015 99.7122C303.015 102.292 303.346 104.462 304.008 106.222C304.688 107.982 305.585 109.316 306.701 110.222C307.834 111.111 309.071 111.555 310.413 111.555Z" fill="#2B2B2B"/>
<path d="M339.28 112.261C336.823 112.261 334.696 111.686 332.901 110.536C331.123 109.385 329.747 107.86 328.771 105.961C327.795 104.061 327.306 101.978 327.306 99.7122C327.306 97.4464 327.795 95.3636 328.771 93.4639C329.747 91.5641 331.123 90.0391 332.901 88.8887C334.696 87.7384 336.823 87.1633 339.28 87.1633C341.738 87.1633 343.864 87.7384 345.659 88.8887C347.454 90.0391 348.831 91.5641 349.79 93.4639C350.766 95.3636 351.254 97.4464 351.254 99.7122C351.254 101.978 350.766 104.061 349.79 105.961C348.831 107.86 347.454 109.385 345.659 110.536C343.864 111.686 341.738 112.261 339.28 112.261ZM339.28 111.869C340.692 111.869 341.834 111.477 342.705 110.692C343.577 109.891 344.23 108.871 344.666 107.634C345.119 106.396 345.415 105.072 345.555 103.66C345.712 102.248 345.79 100.932 345.79 99.7122C345.79 98.4747 345.712 97.1588 345.555 95.7645C345.415 94.3528 345.119 93.0282 344.666 91.7907C344.23 90.5532 343.577 89.5423 342.705 88.758C341.834 87.9563 340.692 87.5554 339.28 87.5554C337.851 87.5554 336.701 87.9563 335.829 88.758C334.975 89.5423 334.322 90.5532 333.869 91.7907C333.433 93.0282 333.137 94.3528 332.98 95.7645C332.823 97.1588 332.744 98.4747 332.744 99.7122C332.744 100.932 332.823 102.248 332.98 103.66C333.137 105.072 333.433 106.396 333.869 107.634C334.322 108.871 334.975 109.891 335.829 110.692C336.701 111.477 337.851 111.869 339.28 111.869Z" fill="#2B2B2B"/>
<path d="M363.133 100.209C363.133 98.6054 363.246 97.0368 363.473 95.5031C363.699 93.9519 364.083 92.5489 364.623 91.294C365.164 90.0391 365.896 89.0369 366.819 88.2874C367.743 87.538 368.885 87.1633 370.244 87.1633C371.22 87.1633 372.057 87.355 372.754 87.7384C373.451 88.1219 373.983 88.6273 374.349 89.2548C374.732 89.8822 374.924 90.5707 374.924 91.3201C374.924 92.209 374.654 92.9584 374.113 93.5685C373.573 94.1785 372.832 94.4835 371.891 94.4835C370.933 94.4835 370.174 94.222 369.617 93.6992C369.076 93.1589 368.806 92.4966 368.806 91.7123C368.806 90.7014 369.129 89.9432 369.773 89.4378C370.436 88.9149 371.142 88.6535 371.891 88.6535C372.449 88.6535 372.954 88.7755 373.407 89.0195C373.861 89.2635 374.218 89.5859 374.479 89.9868C374.741 90.3876 374.871 90.8321 374.871 91.3201H374.505C374.505 90.6404 374.322 90.0216 373.956 89.4639C373.608 88.8887 373.111 88.4356 372.466 88.1044C371.821 87.7559 371.072 87.5816 370.218 87.5816C368.946 87.5816 367.874 87.9476 367.002 88.6796C366.131 89.3942 365.425 90.3615 364.885 91.5815C364.362 92.7841 363.978 94.1436 363.734 95.6599C363.508 97.1588 363.394 98.6752 363.394 100.209H363.133ZM363.394 87.6861V111.346H366.715V111.738H355.499V111.346H358.741V88.0783H355.499V87.6861H363.394Z" fill="#2B2B2B"/>
<path d="M398.175 112.261C397.356 112.261 396.58 112.139 395.848 111.895C395.134 111.651 394.55 111.207 394.097 110.562C393.661 109.917 393.443 108.984 393.443 107.764V95.8168C393.443 94.5619 393.347 93.3157 393.156 92.0783C392.964 90.8408 392.537 89.8125 391.875 88.9933C391.212 88.1742 390.184 87.7646 388.79 87.7646C387.883 87.7646 386.968 87.8779 386.045 88.1044C385.121 88.331 384.267 88.6535 383.483 89.0718C382.716 89.4726 382.097 89.9781 381.626 90.5881C381.156 91.1807 380.92 91.8517 380.92 92.6011H380.502C380.502 91.7123 380.79 91.0151 381.365 90.5097C381.957 89.9868 382.602 89.7253 383.3 89.7253C384.049 89.7253 384.729 89.9694 385.339 90.4574C385.966 90.9279 386.28 91.6077 386.28 92.4966C386.28 93.5423 385.957 94.3005 385.313 94.7711C384.685 95.2416 384.014 95.4769 383.3 95.4769C382.498 95.4769 381.818 95.2329 381.26 94.7449C380.72 94.2569 380.45 93.5423 380.45 92.6011C380.45 91.782 380.711 91.0499 381.234 90.4051C381.757 89.7428 382.454 89.185 383.326 88.7319C384.215 88.2613 385.217 87.904 386.332 87.66C387.465 87.3986 388.624 87.2678 389.809 87.2678C392.214 87.2678 394.001 87.6861 395.169 88.5227C396.354 89.3593 397.138 90.4312 397.522 91.7384C397.905 93.0456 398.097 94.405 398.097 95.8168V109.15C398.097 109.76 398.21 110.292 398.437 110.745C398.681 111.181 399.16 111.398 399.875 111.398C400.45 111.398 401.077 111.137 401.757 110.614C402.437 110.091 402.968 109.394 403.352 108.523L403.561 108.862C403.108 109.856 402.402 110.675 401.443 111.32C400.502 111.947 399.413 112.261 398.175 112.261ZM386.071 112.261C383.805 112.261 381.992 111.686 380.633 110.536C379.291 109.368 378.62 107.791 378.62 105.804C378.62 103.468 379.605 101.664 381.574 100.392C383.561 99.1196 386.411 98.4834 390.123 98.4834H395.875V98.8233H390.123C388.589 98.8233 387.369 99.1893 386.463 99.9213C385.557 100.636 384.903 101.507 384.502 102.536C384.119 103.564 383.927 104.557 383.927 105.516C383.927 106.388 384.04 107.276 384.267 108.183C384.493 109.089 384.877 109.847 385.417 110.457C385.957 111.067 386.689 111.372 387.613 111.372C388.624 111.372 389.574 111.059 390.463 110.431C391.352 109.786 392.066 108.793 392.607 107.451C393.164 106.109 393.443 104.374 393.443 102.248H393.705C393.705 104.235 393.435 105.987 392.894 107.503C392.354 109.002 391.526 110.17 390.411 111.006C389.295 111.843 387.849 112.261 386.071 112.261Z" fill="#2B2B2B"/>
<path d="M413.388 112.104C411.958 112.104 410.895 111.791 410.198 111.163C409.518 110.536 409.065 109.751 408.839 108.81C408.629 107.852 408.525 106.893 408.525 105.934V82.4574C409.309 82.4574 410.154 82.2919 411.061 81.9607C411.984 81.6295 412.708 81.2723 413.231 80.8888V107.712C413.231 109.019 413.388 109.899 413.701 110.353C414.015 110.788 414.529 111.006 415.244 111.006C416.185 111.006 417.091 110.553 417.963 109.647C418.852 108.74 419.549 107.703 420.054 106.536L420.394 106.719C419.749 108.305 418.825 109.603 417.623 110.614C416.42 111.608 415.008 112.104 413.388 112.104ZM404.812 88.0783V87.6861H418.825V88.0783H404.812Z" fill="#2B2B2B"/>
<path d="M428.859 78.3267C428.005 78.3267 427.264 78.0217 426.637 77.4117C426.027 76.7843 425.722 76.0435 425.722 75.1895C425.722 74.3181 426.027 73.5773 426.637 72.9673C427.264 72.3573 428.005 72.0523 428.859 72.0523C429.73 72.0523 430.471 72.3573 431.081 72.9673C431.691 73.5773 431.996 74.3181 431.996 75.1895C431.996 76.0435 431.691 76.7843 431.081 77.4117C430.471 78.0217 429.73 78.3267 428.859 78.3267ZM431.186 87.6861V111.346H434.401V111.738H423.264V111.346H426.48V88.0783H423.264V87.6861H431.186Z" fill="#2B2B2B"/>
<path d="M450.952 112.261C448.495 112.261 446.368 111.686 444.573 110.536C442.795 109.385 441.418 107.86 440.442 105.961C439.466 104.061 438.978 101.978 438.978 99.7122C438.978 97.4464 439.466 95.3636 440.442 93.4639C441.418 91.5641 442.795 90.0391 444.573 88.8887C446.368 87.7384 448.495 87.1633 450.952 87.1633C453.41 87.1633 455.536 87.7384 457.331 88.8887C459.126 90.0391 460.503 91.5641 461.462 93.4639C462.438 95.3636 462.926 97.4464 462.926 99.7122C462.926 101.978 462.438 104.061 461.462 105.961C460.503 107.86 459.126 109.385 457.331 110.536C455.536 111.686 453.41 112.261 450.952 112.261ZM450.952 111.869C452.364 111.869 453.505 111.477 454.377 110.692C455.248 109.891 455.902 108.871 456.338 107.634C456.791 106.396 457.087 105.072 457.227 103.66C457.383 102.248 457.462 100.932 457.462 99.7122C457.462 98.4747 457.383 97.1588 457.227 95.7645C457.087 94.3528 456.791 93.0282 456.338 91.7907C455.902 90.5532 455.248 89.5423 454.377 88.758C453.505 87.9563 452.364 87.5554 450.952 87.5554C449.523 87.5554 448.373 87.9563 447.501 88.758C446.647 89.5423 445.994 90.5532 445.54 91.7907C445.105 93.0282 444.808 94.3528 444.652 95.7645C444.495 97.1588 444.416 98.4747 444.416 99.7122C444.416 100.932 444.495 102.248 444.652 103.66C444.808 105.072 445.105 106.396 445.54 107.634C445.994 108.871 446.647 109.891 447.501 110.692C448.373 111.477 449.523 111.869 450.952 111.869Z" fill="#2B2B2B"/>
<path d="M475.066 87.6861V111.346H478.282V111.738H467.171V111.346H470.413V88.0783H467.171V87.6861H475.066ZM491.014 95.0586V111.346H494.256V111.738H483.145V111.346H486.334V95.6861C486.334 94.222 486.273 92.8887 486.151 91.6861C486.029 90.4835 485.742 89.5249 485.288 88.8103C484.835 88.0783 484.129 87.7123 483.171 87.7123C481.445 87.7123 480.042 88.1306 478.962 88.9672C477.899 89.8038 477.079 90.867 476.504 92.1567C475.946 93.4464 475.563 94.7972 475.354 96.209C475.162 97.6207 475.066 98.9017 475.066 100.052L474.779 100.261C474.779 99.0586 474.875 97.7079 475.066 96.209C475.258 94.7101 475.65 93.2722 476.243 91.8953C476.835 90.5184 477.724 89.3855 478.909 88.4966C480.095 87.6077 481.681 87.1633 483.668 87.1633C485.707 87.1633 487.249 87.5031 488.295 88.1829C489.358 88.8626 490.073 89.8038 490.439 91.0064C490.822 92.1916 491.014 93.5423 491.014 95.0586Z" fill="#2B2B2B"/>
<path d="M498.595 112.261V104.836H498.987C499.074 106.109 499.527 107.276 500.346 108.34C501.183 109.403 502.237 110.248 503.51 110.875C504.799 111.503 506.168 111.817 507.614 111.817C508.643 111.817 509.627 111.66 510.568 111.346C511.527 111.032 512.303 110.527 512.895 109.83C513.505 109.133 513.81 108.191 513.81 107.006C513.81 105.908 513.462 105.045 512.765 104.418C512.067 103.773 511.161 103.25 510.046 102.849C508.948 102.449 507.771 102.065 506.516 101.699C505.279 101.316 504.102 100.845 502.987 100.287C501.889 99.7122 500.991 98.9453 500.294 97.9867C499.597 97.0281 499.248 95.7471 499.248 94.1436C499.248 93.0282 499.51 91.9475 500.033 90.9018C500.555 89.8386 501.349 88.9585 502.412 88.2613C503.492 87.5641 504.86 87.2156 506.516 87.2156C507.754 87.2156 508.887 87.4247 509.915 87.843C510.943 88.2439 511.832 88.7755 512.582 89.4378L514.804 87.1633H515.17V94.4835H514.778C514.743 93.3854 514.368 92.3136 513.653 91.2678C512.939 90.2221 511.971 89.3593 510.751 88.6796C509.531 87.9824 508.137 87.6339 506.569 87.6339C505.61 87.6339 504.738 87.782 503.954 88.0783C503.187 88.3746 502.577 88.8103 502.124 89.3855C501.671 89.9606 501.444 90.6578 501.444 91.477C501.444 92.5053 501.81 93.3332 502.542 93.9606C503.292 94.5706 504.242 95.0935 505.392 95.5292C506.56 95.9649 507.797 96.392 509.104 96.8102C510.412 97.2111 511.649 97.7166 512.817 98.3266C513.985 98.9192 514.934 99.6948 515.666 100.653C516.416 101.612 516.791 102.849 516.791 104.366C516.791 105.917 516.398 107.285 515.614 108.47C514.83 109.655 513.775 110.588 512.451 111.268C511.126 111.93 509.627 112.261 507.954 112.261C506.664 112.261 505.444 112.052 504.294 111.634C503.161 111.198 502.168 110.605 501.314 109.856L498.935 112.261H498.595Z" fill="#2B2B2B"/>
</g>
<g clip-path="url(#clip1_126_1677)">
<path d="M12.9411 40.5225C10.623 40.5225 8.66224 40.1652 7.05877 39.4507C5.45529 38.7186 4.12197 37.7339 3.0588 36.4964L0.339867 40.2611H0V29.5422H0.392154C0.688448 31.0411 1.1416 32.4355 1.75162 33.7252C2.36164 34.9975 3.15466 36.113 4.13068 37.0716C5.10671 38.0128 6.28317 38.7535 7.66007 39.2938C9.03696 39.8167 10.6579 40.0781 12.5228 40.0781C14.3703 40.0781 15.9824 39.7557 17.3593 39.1108C18.7362 38.4485 19.8081 37.4899 20.575 36.235C21.3419 34.9627 21.7253 33.4028 21.7253 31.5553C21.7253 30.0215 21.3419 28.7231 20.575 27.6599C19.8255 26.5967 18.8234 25.673 17.5685 24.8887C16.3136 24.1044 14.9367 23.3811 13.4378 22.7188C11.9389 22.039 10.44 21.3419 8.9411 20.6273C7.4422 19.8953 6.06531 19.05 4.81042 18.0914C3.57296 17.1328 2.57079 15.9737 1.80391 14.6143C1.03703 13.2548 0.653589 11.6077 0.653589 9.67312C0.653589 7.75593 1.15032 6.07402 2.14377 4.62741C3.13723 3.16337 4.45312 2.03049 6.09145 1.22875C7.72978 0.409583 9.52498 0 11.477 0C13.2374 0 14.8321 0.278865 16.2613 0.836596C17.7079 1.39432 18.9454 2.24835 19.9737 3.39866L22.6665 0H23.0063V10.7189H22.6403C22.2918 8.38337 21.6207 6.45746 20.6273 4.94114C19.6513 3.42481 18.4225 2.30935 16.941 1.59476C15.477 0.862739 13.83 0.496729 11.9999 0.496729C9.49012 0.496729 7.58164 1.11546 6.27446 2.35292C4.98471 3.57296 4.33983 5.19386 4.33983 7.21563C4.33983 8.60995 4.71456 9.78641 5.46401 10.745C6.21346 11.7036 7.1982 12.5489 8.41823 13.2809C9.63826 14.013 10.9803 14.7101 12.4443 15.3724C13.9258 16.0347 15.3986 16.7493 16.8626 17.5162C18.3266 18.2831 19.6687 19.1894 20.8887 20.2351C22.1087 21.2634 23.0935 22.5096 23.8429 23.9737C24.5924 25.4377 24.9671 27.2067 24.9671 29.2808C24.9671 31.5466 24.4791 33.5248 23.5031 35.2154C22.527 36.8886 21.1327 38.1958 19.3201 39.1369C17.5249 40.0607 15.3986 40.5225 12.9411 40.5225Z" fill="white"/>
<path d="M28.7044 39.7382V39.3461H31.9462V0.915027H28.7044V0.522871H36.6259V39.3461H39.8416V39.7382H28.7044ZM44.6781 39.7382V39.3461H47.8677V23.6861C47.8677 22.222 47.8067 20.8887 47.6847 19.6861C47.5626 18.4835 47.2751 17.5249 46.8219 16.8103C46.3688 16.0783 45.6629 15.7123 44.7043 15.7123C42.9788 15.7123 41.5758 16.1306 40.4952 16.9672C39.432 17.8038 38.6215 18.8669 38.0638 20.1567C37.5061 21.4464 37.1227 22.7972 36.9135 24.209C36.7218 25.6207 36.6259 26.9017 36.6259 28.0521L36.3383 28.2612C36.3383 27.0586 36.4342 25.7078 36.6259 24.209C36.8176 22.7101 37.2098 21.2722 37.8024 19.8953C38.395 18.5184 39.2839 17.3855 40.469 16.4966C41.6542 15.6077 43.2315 15.1633 45.201 15.1633C47.2228 15.1633 48.7565 15.5031 49.8023 16.1829C50.8655 16.8626 51.5888 17.8038 51.9722 19.0064C52.3556 20.1916 52.5474 21.5423 52.5474 23.0586V39.3461H55.7892V39.7382H44.6781Z" fill="white"/>
<path d="M72.0235 40.2611C69.566 40.2611 67.4397 39.6859 65.6445 38.5356C63.8667 37.3853 62.4898 35.8603 61.5138 33.9605C60.5378 32.0607 60.0497 29.978 60.0497 27.7122C60.0497 25.4464 60.5378 23.3636 61.5138 21.4639C62.4898 19.5641 63.8667 18.0391 65.6445 16.8888C67.4397 15.7384 69.566 15.1633 72.0235 15.1633C74.481 15.1633 76.6073 15.7384 78.4025 16.8888C80.1977 18.0391 81.5746 19.5641 82.5332 21.4639C83.5092 23.3636 83.9973 25.4464 83.9973 27.7122C83.9973 29.978 83.5092 32.0607 82.5332 33.9605C81.5746 35.8603 80.1977 37.3853 78.4025 38.5356C76.6073 39.6859 74.481 40.2611 72.0235 40.2611ZM72.0235 39.869C73.4353 39.869 74.5769 39.4768 75.4483 38.6925C76.3198 37.8908 76.9734 36.8712 77.4091 35.6337C77.8622 34.3962 78.1585 33.0716 78.298 31.6599C78.4548 30.2481 78.5333 28.9322 78.5333 27.7122C78.5333 26.4747 78.4548 25.1588 78.298 23.7645C78.1585 22.3528 77.8622 21.0282 77.4091 19.7907C76.9734 18.5532 76.3198 17.5423 75.4483 16.758C74.5769 15.9563 73.4353 15.5554 72.0235 15.5554C70.5943 15.5554 69.444 15.9563 68.5726 16.758C67.7185 17.5423 67.0649 18.5532 66.6118 19.7907C66.1761 21.0282 65.8798 22.3528 65.7229 23.7645C65.566 25.1588 65.4876 26.4747 65.4876 27.7122C65.4876 28.9322 65.566 30.2481 65.7229 31.6599C65.8798 33.0716 66.1761 34.3962 66.6118 35.6337C67.0649 36.8712 67.7185 37.8908 68.5726 38.6925C69.444 39.4768 70.5943 39.869 72.0235 39.869Z" fill="white"/>
<path d="M88.2423 52.81V52.4179H91.4841V16.0783H88.2423V15.6861H96.1638V24.6534C96.5473 21.6556 97.4449 19.3375 98.8566 17.6992C100.286 16.0434 102.133 15.2156 104.399 15.2156C106.281 15.2156 108.059 15.7123 109.732 16.7057C111.406 17.6992 112.765 19.1284 113.811 20.9933C114.856 22.8582 115.379 25.0978 115.379 27.7122C115.379 30.3265 114.856 32.5749 113.811 34.4572C112.765 36.3221 111.406 37.76 109.732 38.7709C108.059 39.7644 106.281 40.2611 104.399 40.2611C102.133 40.2611 100.286 39.4245 98.8566 37.7513C97.4449 36.0781 96.5473 33.7601 96.1638 30.7971V52.4179H99.3795V52.81H88.2423ZM103.562 39.5552C104.992 39.5552 106.177 39.0585 107.118 38.065C108.059 37.0542 108.765 35.6598 109.236 33.8821C109.706 32.1043 109.941 30.0477 109.941 27.7122C109.941 25.3767 109.706 23.3288 109.236 21.5684C108.765 19.7907 108.059 18.4051 107.118 17.4116C106.177 16.4182 104.992 15.9214 103.562 15.9214C102.22 15.9214 100.983 16.3659 99.8501 17.2548C98.7346 18.1436 97.837 19.4683 97.1573 21.2286C96.495 22.9715 96.1638 25.1327 96.1638 27.7122C96.1638 30.2917 96.495 32.4616 97.1573 34.2219C97.837 35.9823 98.7346 37.3156 99.8501 38.2219C100.983 39.1108 102.22 39.5552 103.562 39.5552Z" fill="white"/>
<path d="M145.501 40.2611C143.044 40.2611 140.917 39.6859 139.122 38.5356C137.344 37.3853 135.968 35.8603 134.992 33.9605C134.016 32.0607 133.527 29.978 133.527 27.7122C133.527 25.4464 134.016 23.3636 134.992 21.4639C135.968 19.5641 137.344 18.0391 139.122 16.8888C140.917 15.7384 143.044 15.1633 145.501 15.1633C147.959 15.1633 150.085 15.7384 151.88 16.8888C153.675 18.0391 155.052 19.5641 156.011 21.4639C156.987 23.3636 157.475 25.4464 157.475 27.7122C157.475 29.978 156.987 32.0607 156.011 33.9605C155.052 35.8603 153.675 37.3853 151.88 38.5356C150.085 39.6859 147.959 40.2611 145.501 40.2611ZM145.501 39.869C146.913 39.869 148.055 39.4768 148.926 38.6925C149.798 37.8908 150.451 36.8712 150.887 35.6337C151.34 34.3962 151.636 33.0716 151.776 31.6599C151.933 30.2481 152.011 28.9322 152.011 27.7122C152.011 26.4747 151.933 25.1588 151.776 23.7645C151.636 22.3528 151.34 21.0282 150.887 19.7907C150.451 18.5532 149.798 17.5423 148.926 16.758C148.055 15.9563 146.913 15.5554 145.501 15.5554C144.072 15.5554 142.922 15.9563 142.05 16.758C141.196 17.5423 140.543 18.5532 140.09 19.7907C139.654 21.0282 139.358 22.3528 139.201 23.7645C139.044 25.1588 138.965 26.4747 138.965 27.7122C138.965 28.9322 139.044 30.2481 139.201 31.6599C139.358 33.0716 139.654 34.3962 140.09 35.6337C140.543 36.8712 141.196 37.8908 142.05 38.6925C142.922 39.4768 144.072 39.869 145.501 39.869Z" fill="white"/>
<path d="M172.308 40.2611C170.286 40.2611 168.744 39.9212 167.681 39.2415C166.635 38.5443 165.92 37.6032 165.537 36.418C165.154 35.2328 164.962 33.8821 164.962 32.3657V16.0783H161.72V15.6861H169.642V31.7383C169.642 33.2023 169.703 34.5357 169.825 35.7383C169.964 36.9409 170.26 37.9082 170.713 38.6402C171.167 39.3548 171.872 39.7121 172.831 39.7121C174.557 39.7121 175.951 39.2938 177.014 38.4572C178.095 37.6206 178.905 36.5574 179.445 35.2677C180.003 33.9779 180.378 32.6272 180.57 31.2154C180.779 29.8037 180.883 28.5226 180.883 27.3723L181.171 27.1632C181.171 28.3658 181.075 29.7165 180.883 31.2154C180.709 32.7143 180.334 34.1522 179.759 35.5291C179.184 36.906 178.304 38.0389 177.119 38.9278C175.933 39.8167 174.33 40.2611 172.308 40.2611ZM180.883 39.7382V16.0783H177.223V15.6861H185.615V39.3461H188.831V39.7382H180.883Z" fill="white"/>
<path d="M199.94 28.2089C199.94 26.6054 200.053 25.0368 200.28 23.5031C200.506 21.9519 200.89 20.5489 201.43 19.294C201.97 18.0391 202.702 17.0369 203.626 16.2874C204.55 15.538 205.692 15.1633 207.051 15.1633C208.027 15.1633 208.864 15.355 209.561 15.7384C210.258 16.1219 210.79 16.6273 211.156 17.2548C211.539 17.8822 211.731 18.5707 211.731 19.3201C211.731 20.209 211.461 20.9584 210.92 21.5684C210.38 22.1785 209.639 22.4835 208.698 22.4835C207.739 22.4835 206.981 22.222 206.424 21.6992C205.883 21.1589 205.613 20.4966 205.613 19.7123C205.613 18.7014 205.936 17.9432 206.58 17.4378C207.243 16.9149 207.949 16.6535 208.698 16.6535C209.256 16.6535 209.761 16.7755 210.214 17.0195C210.668 17.2635 211.025 17.5859 211.286 17.9868C211.548 18.3876 211.678 18.8321 211.678 19.3201H211.312C211.312 18.6404 211.129 18.0216 210.763 17.4639C210.415 16.8888 209.918 16.4356 209.273 16.1044C208.628 15.7559 207.879 15.5816 207.025 15.5816C205.753 15.5816 204.681 15.9476 203.809 16.6796C202.938 17.3942 202.232 18.3615 201.692 19.5815C201.169 20.7841 200.785 22.1436 200.541 23.6599C200.315 25.1588 200.201 26.6752 200.201 28.2089H199.94ZM200.201 15.6861V39.3461H203.522V39.7382H192.306V39.3461H195.548V16.0783H192.306V15.6861H200.201Z" fill="white"/>
<path d="M236.812 0.522871V39.3461H241.074V39.7382H227.845V39.3461H232.132V0.915027H227.845V0.522871H236.812Z" fill="white"/>
<path d="M250.398 6.32674C249.544 6.32674 248.803 6.02174 248.176 5.41172C247.566 4.78427 247.261 4.04354 247.261 3.18952C247.261 2.31806 247.566 1.57733 248.176 0.967314C248.803 0.357296 249.544 0.0522865 250.398 0.0522865C251.27 0.0522865 252.01 0.357296 252.62 0.967314C253.23 1.57733 253.535 2.31806 253.535 3.18952C253.535 4.04354 253.23 4.78427 252.62 5.41172C252.01 6.02174 251.27 6.32674 250.398 6.32674ZM252.725 15.6861V39.3461H255.941V39.7382H244.804V39.3461H248.019V16.0783H244.804V15.6861H252.725Z" fill="white"/>
<path d="M267.603 15.6861V39.3461H270.818V39.7382H259.707V39.3461H262.949V16.0783H259.707V15.6861H267.603ZM282.505 23.0586V39.3461H285.746V39.7382H274.635V39.3461H277.851V23.6338C277.851 22.1698 277.799 20.8364 277.694 19.6338C277.607 18.4312 277.354 17.4813 276.936 16.7842C276.535 16.0696 275.855 15.7123 274.897 15.7123C273.415 15.7123 272.195 16.1306 271.237 16.9672C270.278 17.8038 269.529 18.8669 268.988 20.1567C268.466 21.4464 268.099 22.7972 267.89 24.209C267.699 25.6033 267.603 26.8669 267.603 27.9998L267.341 28.2089C267.341 27.0063 267.437 25.6643 267.629 24.1828C267.821 22.6839 268.195 21.2547 268.753 19.8953C269.328 18.5184 270.156 17.3855 271.237 16.4966C272.317 15.6077 273.746 15.1633 275.524 15.1633C277.319 15.1633 278.723 15.5031 279.733 16.1829C280.762 16.8626 281.476 17.8038 281.877 19.0064C282.295 20.1916 282.505 21.5423 282.505 23.0586ZM297.406 23.0586V39.3461H300.622V39.7382H289.511V39.3461H292.727V23.6338C292.727 22.1698 292.674 20.8364 292.57 19.6338C292.465 18.4312 292.204 17.4813 291.786 16.7842C291.367 16.0696 290.679 15.7123 289.72 15.7123C288.221 15.7123 286.993 16.1306 286.034 16.9672C285.093 17.8038 284.37 18.8669 283.864 20.1567C283.359 21.4464 283.001 22.7972 282.792 24.209C282.6 25.6033 282.505 26.8669 282.505 27.9998L282.243 28.2089C282.243 27.0063 282.33 25.6643 282.505 24.1828C282.696 22.6839 283.062 21.2547 283.603 19.8953C284.16 18.5184 284.971 17.3855 286.034 16.4966C287.115 15.6077 288.544 15.1633 290.322 15.1633C292.134 15.1633 293.555 15.5031 294.583 16.1829C295.611 16.8626 296.335 17.8038 296.753 19.0064C297.189 20.1916 297.406 21.5423 297.406 23.0586Z" fill="white"/>
<path d="M309.936 6.32674C309.082 6.32674 308.341 6.02174 307.714 5.41172C307.104 4.78427 306.799 4.04354 306.799 3.18952C306.799 2.31806 307.104 1.57733 307.714 0.967314C308.341 0.357296 309.082 0.0522865 309.936 0.0522865C310.808 0.0522865 311.548 0.357296 312.158 0.967314C312.768 1.57733 313.073 2.31806 313.073 3.18952C313.073 4.04354 312.768 4.78427 312.158 5.41172C311.548 6.02174 310.808 6.32674 309.936 6.32674ZM312.263 15.6861V39.3461H315.479V39.7382H304.341V39.3461H307.557V16.0783H304.341V15.6861H312.263Z" fill="white"/>
<path d="M327.298 40.1042C325.868 40.1042 324.805 39.7905 324.108 39.1631C323.428 38.5356 322.975 37.7513 322.749 36.8102C322.539 35.8516 322.435 34.893 322.435 33.9344V10.4574C323.219 10.4574 324.064 10.2919 324.971 9.9607C325.895 9.62955 326.618 9.27225 327.141 8.88882V35.7121C327.141 37.0193 327.298 37.8995 327.611 38.3526C327.925 38.7884 328.439 39.0062 329.154 39.0062C330.095 39.0062 331.001 38.5531 331.873 37.6467C332.762 36.7404 333.459 35.7034 333.964 34.5357L334.304 34.7187C333.659 36.3047 332.735 37.6032 331.533 38.6141C330.33 39.6075 328.918 40.1042 327.298 40.1042ZM318.722 16.0783V15.6861H332.735V16.0783H318.722Z" fill="white"/>
<path d="M349.801 40.2611C347.536 40.2611 345.488 39.7644 343.658 38.7709C341.845 37.76 340.398 36.3221 339.318 34.4572C338.255 32.5749 337.723 30.3265 337.723 27.7122C337.723 25.0978 338.237 22.8582 339.266 20.9933C340.294 19.111 341.697 17.6731 343.475 16.6796C345.27 15.6687 347.309 15.1633 349.592 15.1633C352.172 15.1633 354.237 15.6774 355.788 16.7057C357.357 17.7341 358.49 19.0848 359.187 20.758C359.902 22.4138 360.259 24.1915 360.259 26.0913H341.226V25.6991H354.716C354.734 24.7231 354.682 23.6512 354.56 22.4835C354.455 21.3157 354.228 20.209 353.88 19.1632C353.531 18.1175 353.017 17.2548 352.337 16.575C351.658 15.8953 350.743 15.5554 349.592 15.5554C348.303 15.5554 347.239 15.904 346.403 16.6012C345.584 17.2983 344.93 18.2308 344.442 19.3985C343.971 20.5663 343.64 21.8735 343.449 23.3201C343.257 24.7493 343.161 26.2133 343.161 27.7122C343.161 29.1937 343.257 30.6577 343.449 32.1043C343.658 33.5509 344.015 34.8494 344.52 35.9997C345.043 37.15 345.749 38.0738 346.638 38.7709C347.544 39.4507 348.703 39.7905 350.115 39.7905C352.712 39.7905 354.838 39.0846 356.494 37.6729C358.167 36.2437 359.326 34.5095 359.971 32.4703H360.416C359.736 34.6838 358.516 36.54 356.756 38.0389C354.995 39.5204 352.677 40.2611 349.801 40.2611Z" fill="white"/>
<path d="M376.226 40.2088C374.343 40.2088 372.566 39.7121 370.892 38.7186C369.219 37.7252 367.86 36.296 366.814 34.4311C365.768 32.5662 365.245 30.3265 365.245 27.7122C365.245 25.0978 365.768 22.8582 366.814 20.9933C367.86 19.111 369.219 17.6731 370.892 16.6796C372.566 15.6687 374.343 15.1633 376.226 15.1633C378.509 15.1633 380.348 15.9999 381.742 17.6731C383.154 19.3288 384.043 21.6469 384.409 24.6272V0.915027H381.193V0.522871H389.141V39.3461H392.356V39.7382H384.409V30.8233C384.043 33.7862 383.154 36.0956 381.742 37.7513C380.348 39.3897 378.509 40.2088 376.226 40.2088ZM377.036 39.5291C378.378 39.5291 379.607 39.0846 380.722 38.1958C381.855 37.2895 382.753 35.9648 383.415 34.2219C384.077 32.4616 384.409 30.2917 384.409 27.7122C384.409 25.1327 384.077 22.9715 383.415 21.2286C382.753 19.4683 381.855 18.1349 380.722 17.2286C379.607 16.3223 378.378 15.8692 377.036 15.8692C375.607 15.8692 374.422 16.3746 373.481 17.3855C372.539 18.3789 371.834 19.7645 371.363 21.5423C370.91 23.3201 370.683 25.3767 370.683 27.7122C370.683 30.0477 370.91 32.1043 371.363 33.8821C371.834 35.6598 372.539 37.0454 373.481 38.0389C374.422 39.0324 375.607 39.5291 377.036 39.5291Z" fill="white"/>
<path d="M12.1306 112.261C9.86484 112.261 7.81693 111.764 5.98688 110.771C4.17426 109.76 2.72765 108.322 1.64705 106.457C0.583873 104.575 0.0522873 102.327 0.0522873 99.7122C0.0522873 97.0978 0.566444 94.8582 1.59476 92.9933C2.62307 91.111 4.02611 89.6731 5.80387 88.6796C7.59907 87.6687 9.63826 87.1633 11.9215 87.1633C14.501 87.1633 16.5663 87.6774 18.1175 88.7057C19.6861 89.7341 20.819 91.0848 21.5162 92.758C22.2308 94.4138 22.588 96.1915 22.588 98.0913H3.55553V97.6991H17.0456C17.063 96.7231 17.0108 95.6512 16.8888 94.4835C16.7842 93.3157 16.5576 92.209 16.209 91.1632C15.8604 90.1175 15.3463 89.2548 14.6665 88.575C13.9868 87.8953 13.0718 87.5554 11.9215 87.5554C10.6317 87.5554 9.56855 87.904 8.73195 88.6012C7.91279 89.2983 7.2592 90.2308 6.77119 91.3985C6.3006 92.5663 5.96945 93.8735 5.77773 95.3201C5.58601 96.7493 5.49015 98.2133 5.49015 99.7122C5.49015 101.194 5.58601 102.658 5.77773 104.104C5.98688 105.551 6.34417 106.849 6.84962 108C7.37249 109.15 8.07836 110.074 8.96725 110.771C9.87356 111.451 11.0326 111.791 12.4443 111.791C15.0413 111.791 17.1676 111.085 18.8234 109.673C20.4966 108.244 21.6556 106.51 22.3005 104.47H22.7449C22.0652 106.684 20.8451 108.54 19.0848 110.039C17.3245 111.52 15.0064 112.261 12.1306 112.261Z" fill="white"/>
<path d="M38.5548 112.209C36.6725 112.209 34.8947 111.712 33.2215 110.719C31.5483 109.725 30.1889 108.296 29.1431 106.431C28.0974 104.566 27.5745 102.327 27.5745 99.7122C27.5745 97.0978 28.0974 94.8582 29.1431 92.9933C30.1889 91.111 31.5483 89.6731 33.2215 88.6796C34.8947 87.6687 36.6725 87.1633 38.5548 87.1633C40.838 87.1633 42.6768 87.9999 44.0711 89.6731C45.4829 91.3288 46.3718 93.6469 46.7378 96.6273V72.915H43.5221V72.5229H51.4698V111.346H54.6854V111.738H46.7378V102.823C46.3718 105.786 45.4829 108.096 44.0711 109.751C42.6768 111.39 40.838 112.209 38.5548 112.209ZM39.3653 111.529C40.7073 111.529 41.9361 111.085 43.0515 110.196C44.1844 109.289 45.082 107.965 45.7443 106.222C46.4066 104.462 46.7378 102.292 46.7378 99.7122C46.7378 97.1327 46.4066 94.9715 45.7443 93.2286C45.082 91.4682 44.1844 90.1349 43.0515 89.2286C41.9361 88.3223 40.7073 87.8691 39.3653 87.8691C37.9361 87.8691 36.7509 88.3746 35.8098 89.3855C34.8686 90.3789 34.1627 91.7645 33.6921 93.5423C33.239 95.3201 33.0124 97.3767 33.0124 99.7122C33.0124 102.048 33.239 104.104 33.6921 105.882C34.1627 107.66 34.8686 109.045 35.8098 110.039C36.7509 111.032 37.9361 111.529 39.3653 111.529Z" fill="white"/>
<path d="M64.0232 78.3267C63.1691 78.3267 62.4284 78.0217 61.801 77.4117C61.1909 76.7843 60.8859 76.0435 60.8859 75.1895C60.8859 74.3181 61.1909 73.5773 61.801 72.9673C62.4284 72.3573 63.1691 72.0523 64.0232 72.0523C64.8946 72.0523 65.6353 72.3573 66.2454 72.9673C66.8554 73.5773 67.1604 74.3181 67.1604 75.1895C67.1604 76.0435 66.8554 76.7843 66.2454 77.4117C65.6353 78.0217 64.8946 78.3267 64.0232 78.3267ZM66.3499 87.6861V111.346H69.5656V111.738H58.4284V111.346H61.6441V88.0783H58.4284V87.6861H66.3499Z" fill="white"/>
<path d="M81.3845 112.104C79.9554 112.104 78.8922 111.791 78.195 111.163C77.5153 110.536 77.0621 109.751 76.8356 108.81C76.6264 107.852 76.5218 106.893 76.5218 105.934V82.4574C77.3061 82.4574 78.1515 82.2919 79.0578 81.9607C79.9815 81.6295 80.7048 81.2723 81.2277 80.8888V107.712C81.2277 109.019 81.3845 109.899 81.6983 110.353C82.012 110.788 82.5261 111.006 83.2407 111.006C84.1819 111.006 85.0882 110.553 85.9597 109.647C86.8485 108.74 87.5457 107.703 88.0512 106.536L88.391 106.719C87.7461 108.305 86.8224 109.603 85.6198 110.614C84.4172 111.608 83.0054 112.104 81.3845 112.104ZM72.8094 88.0783V87.6861H86.8224V88.0783H72.8094Z" fill="white"/>
<path d="M96.8558 78.3267C96.0018 78.3267 95.2611 78.0217 94.6336 77.4117C94.0236 76.7843 93.7186 76.0435 93.7186 75.1895C93.7186 74.3181 94.0236 73.5773 94.6336 72.9673C95.2611 72.3573 96.0018 72.0523 96.8558 72.0523C97.7273 72.0523 98.468 72.3573 99.078 72.9673C99.688 73.5773 99.993 74.3181 99.993 75.1895C99.993 76.0435 99.688 76.7843 99.078 77.4117C98.468 78.0217 97.7273 78.3267 96.8558 78.3267ZM99.1826 87.6861V111.346H102.398V111.738H91.2611V111.346H94.4768V88.0783H91.2611V87.6861H99.1826Z" fill="white"/>
<path d="M118.949 112.261C116.492 112.261 114.365 111.686 112.57 110.536C110.792 109.385 109.415 107.86 108.439 105.961C107.463 104.061 106.975 101.978 106.975 99.7122C106.975 97.4464 107.463 95.3636 108.439 93.4639C109.415 91.5641 110.792 90.0391 112.57 88.8887C114.365 87.7384 116.492 87.1633 118.949 87.1633C121.407 87.1633 123.533 87.7384 125.328 88.8887C127.123 90.0391 128.5 91.5641 129.459 93.4639C130.435 95.3636 130.923 97.4464 130.923 99.7122C130.923 101.978 130.435 104.061 129.459 105.961C128.5 107.86 127.123 109.385 125.328 110.536C123.533 111.686 121.407 112.261 118.949 112.261ZM118.949 111.869C120.361 111.869 121.503 111.477 122.374 110.692C123.245 109.891 123.899 108.871 124.335 107.634C124.788 106.396 125.084 105.072 125.224 103.66C125.381 102.248 125.459 100.932 125.459 99.7122C125.459 98.4747 125.381 97.1588 125.224 95.7645C125.084 94.3528 124.788 93.0282 124.335 91.7907C123.899 90.5532 123.245 89.5423 122.374 88.758C121.503 87.9563 120.361 87.5554 118.949 87.5554C117.52 87.5554 116.37 87.9563 115.498 88.758C114.644 89.5423 113.991 90.5532 113.537 91.7907C113.102 93.0282 112.805 94.3528 112.649 95.7645C112.492 97.1588 112.413 98.4747 112.413 99.7122C112.413 100.932 112.492 102.248 112.649 103.66C112.805 105.072 113.102 106.396 113.537 107.634C113.991 108.871 114.644 109.891 115.498 110.692C116.37 111.477 117.52 111.869 118.949 111.869Z" fill="white"/>
<path d="M143.063 87.6861V111.346H146.279V111.738H135.168V111.346H138.41V88.0783H135.168V87.6861H143.063ZM159.011 95.0586V111.346H162.253V111.738H151.142V111.346H154.331V95.6861C154.331 94.222 154.27 92.8887 154.148 91.6861C154.026 90.4835 153.739 89.5249 153.285 88.8103C152.832 88.0783 152.126 87.7123 151.168 87.7123C149.442 87.7123 148.039 88.1306 146.959 88.9672C145.896 89.8038 145.076 90.867 144.501 92.1567C143.944 93.4464 143.56 94.7972 143.351 96.209C143.159 97.6207 143.063 98.9017 143.063 100.052L142.776 100.261C142.776 99.0586 142.872 97.7079 143.063 96.209C143.255 94.7101 143.647 93.2722 144.24 91.8953C144.832 90.5184 145.721 89.3855 146.906 88.4966C148.092 87.6077 149.678 87.1633 151.665 87.1633C153.704 87.1633 155.246 87.5031 156.292 88.1829C157.355 88.8626 158.07 89.8038 158.436 91.0064C158.819 92.1916 159.011 93.5423 159.011 95.0586Z" fill="white"/>
<path d="M191.48 112.261C189.197 112.261 187.158 111.764 185.363 110.771C183.568 109.76 182.156 108.322 181.128 106.457C180.099 104.575 179.585 102.327 179.585 99.7122C179.585 97.4464 180.047 95.3636 180.971 93.4639C181.912 91.5641 183.28 90.0391 185.075 88.8887C186.888 87.7384 189.11 87.1633 191.742 87.1633C193.52 87.1633 195.053 87.477 196.343 88.1044C197.633 88.7145 198.626 89.5423 199.324 90.5881C200.021 91.6164 200.369 92.7493 200.369 93.9867C200.369 94.9279 200.099 95.6599 199.559 96.1828C199.019 96.7057 198.347 96.9671 197.546 96.9671C197.11 96.9671 196.657 96.8713 196.186 96.6795C195.733 96.4704 195.35 96.1567 195.036 95.7384C194.722 95.3026 194.565 94.7362 194.565 94.039C194.565 93.1153 194.862 92.4181 195.454 91.9475C196.047 91.4595 196.744 91.2155 197.546 91.2155C198.295 91.2155 198.94 91.4508 199.48 91.9214C200.038 92.3746 200.317 93.063 200.317 93.9867H199.951C199.951 92.9584 199.724 92.0521 199.271 91.2678C198.835 90.4835 198.243 89.8212 197.493 89.2809C196.761 88.7232 195.942 88.3049 195.036 88.026C194.13 87.7471 193.206 87.6077 192.265 87.6077C190.731 87.6077 189.485 87.9999 188.526 88.7842C187.585 89.5685 186.853 90.5794 186.33 91.8168C185.825 93.0543 185.485 94.3702 185.311 95.7645C185.136 97.1588 185.049 98.4747 185.049 99.7122C185.049 101.211 185.145 102.675 185.337 104.104C185.528 105.533 185.868 106.823 186.356 107.974C186.844 109.124 187.524 110.039 188.395 110.719C189.284 111.398 190.426 111.738 191.82 111.738C193.371 111.738 194.705 111.425 195.82 110.797C196.936 110.17 197.868 109.307 198.618 108.209C199.367 107.111 199.977 105.865 200.448 104.47H200.866C200.186 106.684 199.114 108.54 197.65 110.039C196.186 111.52 194.13 112.261 191.48 112.261Z" fill="white"/>
<path d="M218.111 112.261C215.653 112.261 213.527 111.686 211.732 110.536C209.954 109.385 208.577 107.86 207.601 105.961C206.625 104.061 206.137 101.978 206.137 99.7122C206.137 97.4464 206.625 95.3636 207.601 93.4639C208.577 91.5641 209.954 90.0391 211.732 88.8887C213.527 87.7384 215.653 87.1633 218.111 87.1633C220.568 87.1633 222.695 87.7384 224.49 88.8887C226.285 90.0391 227.662 91.5641 228.621 93.4639C229.597 95.3636 230.085 97.4464 230.085 99.7122C230.085 101.978 229.597 104.061 228.621 105.961C227.662 107.86 226.285 109.385 224.49 110.536C222.695 111.686 220.568 112.261 218.111 112.261ZM218.111 111.869C219.523 111.869 220.664 111.477 221.536 110.692C222.407 109.891 223.061 108.871 223.497 107.634C223.95 106.396 224.246 105.072 224.385 103.66C224.542 102.248 224.621 100.932 224.621 99.7122C224.621 98.4747 224.542 97.1588 224.385 95.7645C224.246 94.3528 223.95 93.0282 223.497 91.7907C223.061 90.5532 222.407 89.5423 221.536 88.758C220.664 87.9563 219.523 87.5554 218.111 87.5554C216.682 87.5554 215.531 87.9563 214.66 88.758C213.806 89.5423 213.152 90.5532 212.699 91.7907C212.263 93.0282 211.967 94.3528 211.81 95.7645C211.653 97.1588 211.575 98.4747 211.575 99.7122C211.575 100.932 211.653 102.248 211.81 103.66C211.967 105.072 212.263 106.396 212.699 107.634C213.152 108.871 213.806 109.891 214.66 110.692C215.531 111.477 216.682 111.869 218.111 111.869Z" fill="white"/>
<path d="M243.297 72.5229V111.346H247.558V111.738H234.33V111.346H238.617V72.915H234.33V72.5229H243.297Z" fill="white"/>
<path d="M259.994 72.5229V111.346H264.256V111.738H251.027V111.346H255.314V72.915H251.027V72.5229H259.994Z" fill="white"/>
<path d="M287.933 112.261C287.114 112.261 286.338 112.139 285.606 111.895C284.892 111.651 284.308 111.207 283.855 110.562C283.419 109.917 283.201 108.984 283.201 107.764V95.8168C283.201 94.5619 283.105 93.3157 282.913 92.0783C282.722 90.8408 282.295 89.8125 281.632 88.9933C280.97 88.1742 279.942 87.7646 278.548 87.7646C277.641 87.7646 276.726 87.8779 275.802 88.1044C274.879 88.331 274.025 88.6535 273.24 89.0718C272.473 89.4726 271.855 89.9781 271.384 90.5881C270.914 91.1807 270.678 91.8517 270.678 92.6011H270.26C270.26 91.7123 270.548 91.0151 271.123 90.5097C271.715 89.9868 272.36 89.7253 273.057 89.7253C273.807 89.7253 274.487 89.9694 275.097 90.4574C275.724 90.9279 276.038 91.6077 276.038 92.4966C276.038 93.5423 275.715 94.3005 275.07 94.7711C274.443 95.2416 273.772 95.4769 273.057 95.4769C272.256 95.4769 271.576 95.2329 271.018 94.7449C270.478 94.2569 270.208 93.5423 270.208 92.6011C270.208 91.782 270.469 91.0499 270.992 90.4051C271.515 89.7428 272.212 89.185 273.083 88.7319C273.972 88.2613 274.975 87.904 276.09 87.66C277.223 87.3986 278.382 87.2678 279.567 87.2678C281.972 87.2678 283.759 87.6861 284.927 88.5227C286.112 89.3593 286.896 90.4312 287.279 91.7384C287.663 93.0456 287.855 94.405 287.855 95.8168V109.15C287.855 109.76 287.968 110.292 288.194 110.745C288.439 111.181 288.918 111.398 289.632 111.398C290.208 111.398 290.835 111.137 291.515 110.614C292.194 110.091 292.726 109.394 293.109 108.523L293.319 108.862C292.865 109.856 292.16 110.675 291.201 111.32C290.26 111.947 289.171 112.261 287.933 112.261ZM275.829 112.261C273.563 112.261 271.75 111.686 270.391 110.536C269.049 109.368 268.378 107.791 268.378 105.804C268.378 103.468 269.362 101.664 271.332 100.392C273.319 99.1196 276.168 98.4834 279.881 98.4834H285.632V98.8233H279.881C278.347 98.8233 277.127 99.1893 276.221 99.9213C275.314 100.636 274.661 101.507 274.26 102.536C273.877 103.564 273.685 104.557 273.685 105.516C273.685 106.388 273.798 107.276 274.025 108.183C274.251 109.089 274.635 109.847 275.175 110.457C275.715 111.067 276.447 111.372 277.371 111.372C278.382 111.372 279.332 111.059 280.221 110.431C281.11 109.786 281.824 108.793 282.364 107.451C282.922 106.109 283.201 104.374 283.201 102.248H283.462C283.462 104.235 283.192 105.987 282.652 107.503C282.112 109.002 281.284 110.17 280.168 111.006C279.053 111.843 277.606 112.261 275.829 112.261Z" fill="white"/>
<path d="M311.25 112.261C308.984 112.261 307.137 111.425 305.707 109.751C304.296 108.078 303.398 105.76 303.015 102.797V111.738H295.093V111.346H298.335V72.915H295.093V72.5229H303.015V96.6534C303.398 93.6556 304.296 91.3375 305.707 89.6992C307.137 88.0434 308.984 87.2156 311.25 87.2156C313.132 87.2156 314.91 87.7123 316.583 88.7057C318.256 89.6992 319.616 91.1284 320.662 92.9933C321.707 94.8582 322.23 97.0978 322.23 99.7122C322.23 102.327 321.707 104.575 320.662 106.457C319.616 108.322 318.256 109.76 316.583 110.771C314.91 111.764 313.132 112.261 311.25 112.261ZM310.413 111.555C311.842 111.555 313.028 111.059 313.969 110.065C314.91 109.054 315.616 107.66 316.086 105.882C316.557 104.104 316.792 102.048 316.792 99.7122C316.792 97.3767 316.557 95.3288 316.086 93.5685C315.616 91.7907 314.91 90.4051 313.969 89.4116C313.028 88.4182 311.842 87.9214 310.413 87.9214C309.071 87.9214 307.834 88.3659 306.701 89.2548C305.585 90.1436 304.688 91.4682 304.008 93.2286C303.346 94.9715 303.015 97.1327 303.015 99.7122C303.015 102.292 303.346 104.462 304.008 106.222C304.688 107.982 305.585 109.316 306.701 110.222C307.834 111.111 309.071 111.555 310.413 111.555Z" fill="white"/>
<path d="M339.28 112.261C336.823 112.261 334.696 111.686 332.901 110.536C331.123 109.385 329.747 107.86 328.771 105.961C327.795 104.061 327.306 101.978 327.306 99.7122C327.306 97.4464 327.795 95.3636 328.771 93.4639C329.747 91.5641 331.123 90.0391 332.901 88.8887C334.696 87.7384 336.823 87.1633 339.28 87.1633C341.738 87.1633 343.864 87.7384 345.659 88.8887C347.454 90.0391 348.831 91.5641 349.79 93.4639C350.766 95.3636 351.254 97.4464 351.254 99.7122C351.254 101.978 350.766 104.061 349.79 105.961C348.831 107.86 347.454 109.385 345.659 110.536C343.864 111.686 341.738 112.261 339.28 112.261ZM339.28 111.869C340.692 111.869 341.834 111.477 342.705 110.692C343.577 109.891 344.23 108.871 344.666 107.634C345.119 106.396 345.415 105.072 345.555 103.66C345.712 102.248 345.79 100.932 345.79 99.7122C345.79 98.4747 345.712 97.1588 345.555 95.7645C345.415 94.3528 345.119 93.0282 344.666 91.7907C344.23 90.5532 343.577 89.5423 342.705 88.758C341.834 87.9563 340.692 87.5554 339.28 87.5554C337.851 87.5554 336.701 87.9563 335.829 88.758C334.975 89.5423 334.322 90.5532 333.869 91.7907C333.433 93.0282 333.137 94.3528 332.98 95.7645C332.823 97.1588 332.744 98.4747 332.744 99.7122C332.744 100.932 332.823 102.248 332.98 103.66C333.137 105.072 333.433 106.396 333.869 107.634C334.322 108.871 334.975 109.891 335.829 110.692C336.701 111.477 337.851 111.869 339.28 111.869Z" fill="white"/>
<path d="M363.133 100.209C363.133 98.6054 363.246 97.0368 363.473 95.5031C363.699 93.9519 364.083 92.5489 364.623 91.294C365.164 90.0391 365.896 89.0369 366.819 88.2874C367.743 87.538 368.885 87.1633 370.244 87.1633C371.22 87.1633 372.057 87.355 372.754 87.7384C373.451 88.1219 373.983 88.6273 374.349 89.2548C374.732 89.8822 374.924 90.5707 374.924 91.3201C374.924 92.209 374.654 92.9584 374.113 93.5685C373.573 94.1785 372.832 94.4835 371.891 94.4835C370.933 94.4835 370.174 94.222 369.617 93.6992C369.076 93.1589 368.806 92.4966 368.806 91.7123C368.806 90.7014 369.129 89.9432 369.773 89.4378C370.436 88.9149 371.142 88.6535 371.891 88.6535C372.449 88.6535 372.954 88.7755 373.407 89.0195C373.861 89.2635 374.218 89.5859 374.479 89.9868C374.741 90.3876 374.871 90.8321 374.871 91.3201H374.505C374.505 90.6404 374.322 90.0216 373.956 89.4639C373.608 88.8887 373.111 88.4356 372.466 88.1044C371.821 87.7559 371.072 87.5816 370.218 87.5816C368.946 87.5816 367.874 87.9476 367.002 88.6796C366.131 89.3942 365.425 90.3615 364.885 91.5815C364.362 92.7841 363.978 94.1436 363.734 95.6599C363.508 97.1588 363.394 98.6752 363.394 100.209H363.133ZM363.394 87.6861V111.346H366.715V111.738H355.499V111.346H358.741V88.0783H355.499V87.6861H363.394Z" fill="white"/>
<path d="M398.175 112.261C397.356 112.261 396.58 112.139 395.848 111.895C395.134 111.651 394.55 111.207 394.097 110.562C393.661 109.917 393.443 108.984 393.443 107.764V95.8168C393.443 94.5619 393.347 93.3157 393.156 92.0783C392.964 90.8408 392.537 89.8125 391.875 88.9933C391.212 88.1742 390.184 87.7646 388.79 87.7646C387.883 87.7646 386.968 87.8779 386.045 88.1044C385.121 88.331 384.267 88.6535 383.483 89.0718C382.716 89.4726 382.097 89.9781 381.626 90.5881C381.156 91.1807 380.92 91.8517 380.92 92.6011H380.502C380.502 91.7123 380.79 91.0151 381.365 90.5097C381.957 89.9868 382.602 89.7253 383.3 89.7253C384.049 89.7253 384.729 89.9694 385.339 90.4574C385.966 90.9279 386.28 91.6077 386.28 92.4966C386.28 93.5423 385.957 94.3005 385.313 94.7711C384.685 95.2416 384.014 95.4769 383.3 95.4769C382.498 95.4769 381.818 95.2329 381.26 94.7449C380.72 94.2569 380.45 93.5423 380.45 92.6011C380.45 91.782 380.711 91.0499 381.234 90.4051C381.757 89.7428 382.454 89.185 383.326 88.7319C384.215 88.2613 385.217 87.904 386.332 87.66C387.465 87.3986 388.624 87.2678 389.809 87.2678C392.214 87.2678 394.001 87.6861 395.169 88.5227C396.354 89.3593 397.138 90.4312 397.522 91.7384C397.905 93.0456 398.097 94.405 398.097 95.8168V109.15C398.097 109.76 398.21 110.292 398.437 110.745C398.681 111.181 399.16 111.398 399.875 111.398C400.45 111.398 401.077 111.137 401.757 110.614C402.437 110.091 402.968 109.394 403.352 108.523L403.561 108.862C403.108 109.856 402.402 110.675 401.443 111.32C400.502 111.947 399.413 112.261 398.175 112.261ZM386.071 112.261C383.805 112.261 381.992 111.686 380.633 110.536C379.291 109.368 378.62 107.791 378.62 105.804C378.62 103.468 379.605 101.664 381.574 100.392C383.561 99.1196 386.411 98.4834 390.123 98.4834H395.875V98.8233H390.123C388.589 98.8233 387.369 99.1893 386.463 99.9213C385.557 100.636 384.903 101.507 384.502 102.536C384.119 103.564 383.927 104.557 383.927 105.516C383.927 106.388 384.04 107.276 384.267 108.183C384.493 109.089 384.877 109.847 385.417 110.457C385.957 111.067 386.689 111.372 387.613 111.372C388.624 111.372 389.574 111.059 390.463 110.431C391.352 109.786 392.066 108.793 392.607 107.451C393.164 106.109 393.443 104.374 393.443 102.248H393.705C393.705 104.235 393.435 105.987 392.894 107.503C392.354 109.002 391.526 110.17 390.411 111.006C389.295 111.843 387.849 112.261 386.071 112.261Z" fill="white"/>
<path d="M413.388 112.104C411.958 112.104 410.895 111.791 410.198 111.163C409.518 110.536 409.065 109.751 408.839 108.81C408.629 107.852 408.525 106.893 408.525 105.934V82.4574C409.309 82.4574 410.154 82.2919 411.061 81.9607C411.984 81.6295 412.708 81.2723 413.231 80.8888V107.712C413.231 109.019 413.388 109.899 413.701 110.353C414.015 110.788 414.529 111.006 415.244 111.006C416.185 111.006 417.091 110.553 417.963 109.647C418.852 108.74 419.549 107.703 420.054 106.536L420.394 106.719C419.749 108.305 418.825 109.603 417.623 110.614C416.42 111.608 415.008 112.104 413.388 112.104ZM404.812 88.0783V87.6861H418.825V88.0783H404.812Z" fill="white"/>
<path d="M428.859 78.3267C428.005 78.3267 427.264 78.0217 426.637 77.4117C426.027 76.7843 425.722 76.0435 425.722 75.1895C425.722 74.3181 426.027 73.5773 426.637 72.9673C427.264 72.3573 428.005 72.0523 428.859 72.0523C429.73 72.0523 430.471 72.3573 431.081 72.9673C431.691 73.5773 431.996 74.3181 431.996 75.1895C431.996 76.0435 431.691 76.7843 431.081 77.4117C430.471 78.0217 429.73 78.3267 428.859 78.3267ZM431.186 87.6861V111.346H434.401V111.738H423.264V111.346H426.48V88.0783H423.264V87.6861H431.186Z" fill="white"/>
<path d="M450.952 112.261C448.495 112.261 446.368 111.686 444.573 110.536C442.795 109.385 441.418 107.86 440.442 105.961C439.466 104.061 438.978 101.978 438.978 99.7122C438.978 97.4464 439.466 95.3636 440.442 93.4639C441.418 91.5641 442.795 90.0391 444.573 88.8887C446.368 87.7384 448.495 87.1633 450.952 87.1633C453.41 87.1633 455.536 87.7384 457.331 88.8887C459.126 90.0391 460.503 91.5641 461.462 93.4639C462.438 95.3636 462.926 97.4464 462.926 99.7122C462.926 101.978 462.438 104.061 461.462 105.961C460.503 107.86 459.126 109.385 457.331 110.536C455.536 111.686 453.41 112.261 450.952 112.261ZM450.952 111.869C452.364 111.869 453.505 111.477 454.377 110.692C455.248 109.891 455.902 108.871 456.338 107.634C456.791 106.396 457.087 105.072 457.227 103.66C457.383 102.248 457.462 100.932 457.462 99.7122C457.462 98.4747 457.383 97.1588 457.227 95.7645C457.087 94.3528 456.791 93.0282 456.338 91.7907C455.902 90.5532 455.248 89.5423 454.377 88.758C453.505 87.9563 452.364 87.5554 450.952 87.5554C449.523 87.5554 448.373 87.9563 447.501 88.758C446.647 89.5423 445.994 90.5532 445.54 91.7907C445.105 93.0282 444.808 94.3528 444.652 95.7645C444.495 97.1588 444.416 98.4747 444.416 99.7122C444.416 100.932 444.495 102.248 444.652 103.66C444.808 105.072 445.105 106.396 445.54 107.634C445.994 108.871 446.647 109.891 447.501 110.692C448.373 111.477 449.523 111.869 450.952 111.869Z" fill="white"/>
<path d="M475.066 87.6861V111.346H478.282V111.738H467.171V111.346H470.413V88.0783H467.171V87.6861H475.066ZM491.014 95.0586V111.346H494.256V111.738H483.145V111.346H486.334V95.6861C486.334 94.222 486.273 92.8887 486.151 91.6861C486.029 90.4835 485.742 89.5249 485.288 88.8103C484.835 88.0783 484.129 87.7123 483.171 87.7123C481.445 87.7123 480.042 88.1306 478.962 88.9672C477.899 89.8038 477.079 90.867 476.504 92.1567C475.946 93.4464 475.563 94.7972 475.354 96.209C475.162 97.6207 475.066 98.9017 475.066 100.052L474.779 100.261C474.779 99.0586 474.875 97.7079 475.066 96.209C475.258 94.7101 475.65 93.2722 476.243 91.8953C476.835 90.5184 477.724 89.3855 478.909 88.4966C480.095 87.6077 481.681 87.1633 483.668 87.1633C485.707 87.1633 487.249 87.5031 488.295 88.1829C489.358 88.8626 490.073 89.8038 490.439 91.0064C490.822 92.1916 491.014 93.5423 491.014 95.0586Z" fill="white"/>
<path d="M498.595 112.261V104.836H498.987C499.074 106.109 499.527 107.276 500.346 108.34C501.183 109.403 502.237 110.248 503.51 110.875C504.799 111.503 506.168 111.817 507.614 111.817C508.643 111.817 509.627 111.66 510.568 111.346C511.527 111.032 512.303 110.527 512.895 109.83C513.505 109.133 513.81 108.191 513.81 107.006C513.81 105.908 513.462 105.045 512.765 104.418C512.067 103.773 511.161 103.25 510.046 102.849C508.948 102.449 507.771 102.065 506.516 101.699C505.279 101.316 504.102 100.845 502.987 100.287C501.889 99.7122 500.991 98.9453 500.294 97.9867C499.597 97.0281 499.248 95.7471 499.248 94.1436C499.248 93.0282 499.51 91.9475 500.033 90.9018C500.555 89.8386 501.349 88.9585 502.412 88.2613C503.492 87.5641 504.86 87.2156 506.516 87.2156C507.754 87.2156 508.887 87.4247 509.915 87.843C510.943 88.2439 511.832 88.7755 512.582 89.4378L514.804 87.1633H515.17V94.4835H514.778C514.743 93.3854 514.368 92.3136 513.653 91.2678C512.939 90.2221 511.971 89.3593 510.751 88.6796C509.531 87.9824 508.137 87.6339 506.569 87.6339C505.61 87.6339 504.738 87.782 503.954 88.0783C503.187 88.3746 502.577 88.8103 502.124 89.3855C501.671 89.9606 501.444 90.6578 501.444 91.477C501.444 92.5053 501.81 93.3332 502.542 93.9606C503.292 94.5706 504.242 95.0935 505.392 95.5292C506.56 95.9649 507.797 96.392 509.104 96.8102C510.412 97.2111 511.649 97.7166 512.817 98.3266C513.985 98.9192 514.934 99.6948 515.666 100.653C516.416 101.612 516.791 102.849 516.791 104.366C516.791 105.917 516.398 107.285 515.614 108.47C514.83 109.655 513.775 110.588 512.451 111.268C511.126 111.93 509.627 112.261 507.954 112.261C506.664 112.261 505.444 112.052 504.294 111.634C503.161 111.198 502.168 110.605 501.314 109.856L498.935 112.261H498.595Z" fill="white"/>
</g>
<defs>
<clipPath id="clip0_126_1677">
<rect width="516.791" height="112.261" fill="white"/>
</clipPath>
<clipPath id="clip1_126_1677">
<rect width="146" height="112" fill="white"/>
</clipPath>
</defs>
</svg>
